<?xml version="1.0" encoding="UTF-8"?>
<svg id="Layer_1" data-name="Layer 1" xmlns="http://www.w3.org/2000/svg" viewBox="0 0 512 512">
  <defs>
    <style>
      .st0 {
        fill: #006838;
      }
    </style>
  </defs>
  <path class="st0" d="M455.31,276.97l-37.68-127.77c-3.14-8.44-6.46-16.34-9.93-23.76,7.77-1.5,13.64-8.32,13.64-16.52,0-9.3-7.54-16.84-16.84-16.84h-15.63c-.32-.47-.64-.96-.96-1.43,5.91-2.62,10.05-8.51,10.05-15.39,0-9.3-7.54-16.84-16.84-16.84h-22.78c-2.01-1.58-4.02-3.1-6.04-4.48-27.19-19.18-60.37-30.45-96.18-30.45s-68.98,11.27-96.18,30.45c-1.99,1.41-3.94,2.92-5.88,4.48h-19.97c-9.3,0-16.84,7.54-16.84,16.84,0,6.02,3.19,11.27,7.94,14.25-.61.85-1.23,1.7-1.84,2.57h-12.66c-9.3,0-16.84,7.54-16.84,16.84,0,7.16,4.48,13.23,10.77,15.67-3.73,7.79-7.22,15.99-10.43,24.61l-37.6,128.3c-9.88,33.72-11.9,68.89-6.36,102.93,45.1,65.3,120.46,108.09,205.83,108.09s160.52-42.68,205.65-107.83h.02c5.64-34.29,3.61-69.74-6.41-103.72ZM414.7,258.03c0,11.6-8.15,21.27-19.04,23.65-.84.19-1.54.75-1.85,1.55-14.05,36-47.1,62.48-86.84,67.08-3.87.45-7.81.69-11.8.71-.38,0-.75.08-1.08.25l-70.61,35.09c-2.47,1.23-5.38-.54-5.42-3.3l-.45-29.61c-.02-1.36-1.12-2.43-2.47-2.46-44.11-.99-81.58-28.81-96.79-67.77-.31-.8-1.01-1.37-1.85-1.55-10.88-2.38-19.03-12.05-19.03-23.65v-39.01c0-11.59,8.15-21.26,19.03-23.65.84-.18,1.54-.75,1.85-1.55,15.48-39.67,54.06-67.79,99.22-67.79h3.97c.88,0,1.69-.47,2.14-1.23,2.43-4.15,6.93-6.95,12.09-6.95h10.32c1.3,0,2.39-1.01,2.49-2.31l.94-12.29c.18-2.36-.95-4.67-3.01-5.83-5.94-3.34-9.96-9.7-9.96-17.01,0-11.1,9.25-20.04,20.47-19.51,9.9.47,18.05,8.59,18.56,18.49.41,7.99-4,14.98-10.57,18.37-2.2,1.14-3.49,3.51-3.3,5.99l.9,11.79c.1,1.3,1.18,2.31,2.49,2.31h11.29c5.16,0,9.66,2.8,12.09,6.95.44.76,1.26,1.23,2.14,1.23h3.97c45.16,0,83.74,28.11,99.22,67.79.31.8,1.01,1.37,1.85,1.55h0c10.88,2.39,19.03,12.06,19.03,23.66v39.01ZM310.44,160.93h-108.75c-27.61,0-50,22.39-50,50v55.17c0,27.61,22.39,50,50,50h108.75c27.61,0,50-22.39,50-50v-55.17c0-27.61-22.39-50-50-50ZM223.75,248.85c0,6.19-5.02,11.21-11.21,11.21h-5.6c-6.19,0-11.21-5.02-11.21-11.21v-20.67c0-6.19,5.02-11.21,11.21-11.21h5.6c6.19,0,11.21,5.02,11.21,11.21v20.67ZM316.42,248.85c0,6.19-5.02,11.21-11.21,11.21h-5.6c-6.19,0-11.21-5.02-11.21-11.21v-20.67c0-6.19,5.02-11.21,11.21-11.21h5.6c6.19,0,11.21,5.02,11.21,11.21v20.67Z"/>
</svg>