<?xml version="1.0" encoding="UTF-8"?>
<svg id="Layer_1" xmlns="http://www.w3.org/2000/svg" version="1.1" viewBox="0 0 512 512">
  <!-- Generator: Adobe Illustrator 29.8.1, SVG Export Plug-In . SVG Version: 2.1.1 Build 2)  -->
  <defs>
    <style>
      .st0 {
        fill: #fff;
        opacity: .5;
      }

      .st1 {
        fill: #c29742;
      }

      .st2 {
        fill: #1b8354;
      }

      .st3 {
        fill: #a68138;
      }

      .st4 {
        fill: #e6e7e8;
      }

      .st5 {
        fill: #d1d3d4;
      }

      .st6 {
        fill: #27bf7b;
      }
    </style>
  </defs>
  <rect class="st6" width="512" height="512"/>
  <rect class="st2" width="512" height="512"/>
  <g>
    <circle class="st2" cx="256" cy="256" r="250"/>
    <path class="st0" d="M461.65,398.17c5.64-34.29,3.61-69.74-6.41-103.72l-37.68-127.77c-17.69-47.63-41.15-78.76-65.34-95.27-27.19-19.18-60.37-30.45-96.18-30.45s-68.98,11.27-96.18,30.45c-27,19.19-49.73,52.26-65.75,95.27l-37.6,128.3c-9.88,33.72-11.9,68.89-6.36,102.93,45.1,65.3,120.46,108.09,205.83,108.09s160.52-42.68,205.65-107.83Z"/>
    <rect x="117.17" y="75.89" width="280.71" height="33.69" rx="12.77" ry="12.77"/>
    <rect x="93.77" y="109.55" width="327.5" height="33.69" rx="12.77" ry="12.77"/>
    <path class="st4" d="M395.59,212.84c-.84-.18-1.54-.75-1.85-1.55-15.48-39.68-54.06-67.79-99.22-67.79h-3.97c-.88,0-1.7-.47-2.14-1.23-2.43-4.15-6.93-6.95-12.09-6.95h-11.29c-1.31,0-2.39-1.01-2.49-2.31l-.9-11.79c-.19-2.48,1.1-4.85,3.3-5.99,6.57-3.39,10.98-10.38,10.57-18.37-.51-9.9-8.66-18.02-18.56-18.49-11.22-.53-20.47,8.41-20.47,19.51,0,7.31,4.02,13.67,9.96,17.01,2.06,1.16,3.19,3.47,3.01,5.83l-.94,12.29c-.1,1.3-1.19,2.31-2.49,2.31h-10.32c-5.16,0-9.66,2.8-12.09,6.95-.45.76-1.26,1.23-2.14,1.23h-3.97c-45.16,0-83.74,28.12-99.22,67.79-.31.8-1.01,1.37-1.85,1.55-10.88,2.39-19.03,12.06-19.03,23.65v39.01c0,11.6,8.15,21.27,19.03,23.65.84.18,1.54.75,1.85,1.55,15.21,38.96,52.68,66.78,96.79,67.77,1.35.03,2.45,1.1,2.47,2.46l.45,29.61c.04,2.76,2.95,4.53,5.42,3.3l70.61-35.09c.33-.17.7-.25,1.08-.25,3.99-.02,7.93-.26,11.8-.71,39.74-4.6,72.79-31.08,86.84-67.08.31-.8,1.01-1.36,1.85-1.55,10.89-2.38,19.04-12.05,19.04-23.65v-39.01c0-11.6-8.15-21.27-19.03-23.65Z"/>
    <rect class="st1" x="151.62" y="178.41" width="208.75" height="155.17" rx="50" ry="50"/>
    <rect x="195.66" y="234.45" width="28.02" height="43.09" rx="11.21" ry="11.21"/>
    <rect x="288.33" y="234.45" width="28.02" height="43.09" rx="11.21" ry="11.21"/>
    <path class="st5" d="M208.3,143.9c-2.48.21-4.94.5-7.37.88.52,0,1.03-.03,1.55-.03h3.97c.72,0,1.38-.32,1.85-.85Z"/>
    <path class="st5" d="M232.97,135.62c-1.05.21-2.07.52-3.02.95h1.06c.79,0,1.5-.37,1.96-.95Z"/>
    <path class="st5" d="M395.59,212.84c-.84-.18-1.54-.75-1.85-1.55-15.48-39.68-54.06-67.79-99.22-67.79h-3.97c-.88,0-1.7-.47-2.14-1.23-2.43-4.15-6.93-6.95-12.09-6.95h-11.29c-1.31,0-2.39-1.01-2.49-2.31l-.9-11.79c-.19-2.48,1.1-4.85,3.3-5.99,6.57-3.39,10.98-10.38,10.57-18.37-.5-9.9-8.66-18.02-18.56-18.49-3.6-.17-7,.65-9.96,2.19,7.49,2.46,13.1,9.39,13.52,17.55.41,7.99-4,14.99-10.57,18.37-.44.23-.83.51-1.19.83.53,1.03.78,2.21.69,3.41l-.94,12.29c-.05.7-.39,1.3-.89,1.72.29,1.07,1.27,1.84,2.41,1.84h11.29c5.16,0,9.66,2.8,12.09,6.95.45.76,1.26,1.23,2.14,1.23h3.97c45.16,0,83.74,28.12,99.22,67.79.31.8,1.01,1.37,1.85,1.55,10.88,2.39,19.03,12.06,19.03,23.65v39.01c0,11.6-8.16,21.27-19.04,23.65-.84.18-1.54.75-1.85,1.55-13.57,34.76-44.85,60.65-82.77,66.52,3.69-.05,7.34-.28,10.93-.69,39.74-4.6,72.79-31.08,86.84-67.08.31-.8,1.01-1.36,1.85-1.55,10.89-2.38,19.04-12.05,19.04-23.65v-39.01c0-11.6-8.15-21.27-19.03-23.65Z"/>
    <path class="st5" d="M291.89,369.04c-3.88.45-7.81.69-11.8.71-.37,0-.74.09-1.08.25l-61.03,30.33v.21c.05,2.76,2.95,4.53,5.42,3.3l70.6-35.09c-.7.1-1.4.2-2.11.28Z"/>
    <path class="st3" d="M345.58,192.92c4.53,7.52,7.14,16.34,7.14,25.76v55.17c0,27.61-22.39,50-50,50h-108.75c-13.73,0-26.17-5.54-35.21-14.5,8.75,14.52,24.67,24.24,42.86,24.24h108.75c27.61,0,50-22.39,50-50v-55.17c0-13.88-5.66-26.44-14.79-35.5Z"/>
  </g>
</svg>