<?xml version="1.0" encoding="UTF-8"?>
<svg id="mosa3ed_kfu_icon" xmlns="http://www.w3.org/2000/svg" version="1.1" viewBox="0 0 512 512">
  <!-- Generator: Adobe Illustrator 29.8.1, SVG Export Plug-In . SVG Version: 2.1.1 Build 2)  -->
  <defs>
    <style>
      .st0 {
        fill: #006838;
      }
    </style>
  </defs>
  <rect class="st0" x="107.67" y="63.47" width="300" height="30" rx="14.97" ry="14.97"/>
  <rect class="st0" x="82.67" y="105.44" width="350" height="30" rx="14.97" ry="14.97"/>
  <path class="st0" d="M353.38,50.95c-27.54-19.42-61.13-30.83-97.38-30.83s-69.85,11.41-97.38,30.83h194.77-.01Z"/>
  <g>
    <path class="st0" d="M317.25,326h-17.23c-4.35,0-8.24,3.07-8.91,7.37-.84,5.42,3.37,10.13,8.64,10.13h17.23c4.35,0,8.24-3.07,8.91-7.37.84-5.42-3.37-10.13-8.64-10.13Z"/>
    <path class="st0" d="M457.7,276.79l-38.15-129.37h-146.04v21.09h65.62c21.75,0,39.38,17.63,39.38,39.38v148.75c0,21.75-17.63,39.38-39.38,39.38h-166.25c-21.75,0-39.38-17.63-39.38-39.38v-148.75c0-21.75,17.63-39.38,39.38-39.38h65.62v-21.09H92.04l-38.07,129.91c-17.58,59.98-10.63,124.49,19.33,179.36l.14.25c11.47,21,33.49,34.07,57.42,34.07h249.99c23.87,0,45.84-13,57.33-33.92h0c30.27-55.1,37.3-120,19.52-180.3h0ZM116,343.5h-8.75c-14.5,0-26.25-11.75-26.25-26.25v-52.5c0-14.5,11.75-26.25,26.25-26.25h8.75v105ZM431,317.25c0,14.5-11.75,26.25-26.25,26.25h-8.75v-105h8.75c14.5,0,26.25,11.75,26.25,26.25v52.5Z"/>
    <path class="st0" d="M247.25,326c-5.27,0-9.49,4.72-8.64,10.13.67,4.3,4.56,7.37,8.91,7.37h16.97c4.35,0,8.24-3.07,8.91-7.37.84-5.42-3.37-10.13-8.64-10.13h-17.51Z"/>
    <circle class="st0" cx="203.5" cy="256" r="21.88"/>
    <circle class="st0" cx="308.5" cy="256" r="21.88"/>
    <path class="st0" d="M212.25,326h-17.23c-4.35,0-8.24,3.07-8.91,7.37-.84,5.42,3.37,10.13,8.64,10.13h17.23c4.35,0,8.24-3.07,8.91-7.37.84-5.42-3.37-10.13-8.64-10.13Z"/>
  </g>
</svg>