<?xml version="1.0" encoding="UTF-8"?>
<svg id="mosa3ed_kfu_icon" xmlns="http://www.w3.org/2000/svg" version="1.1" viewBox="0 0 1024 1024">
  <!-- Generator: Adobe Illustrator 29.8.1, SVG Export Plug-In . SVG Version: 2.1.1 Build 2)  -->
  <defs>
    <style>
      .st0 {
        fill: #fff;
      }

      .st0, .st1, .st2 {
        fill-rule: evenodd;
      }

      .st1 {
        fill: #006838;
      }

      .st3 {
        fill: #f9faf6;
      }

      .st2, .st4 {
        fill: #161616;
      }

      .st5 {
        fill: #da8c7b;
      }

      .st6 {
        opacity: .5;
      }
    </style>
  </defs>
  <rect class="st3" width="1024" height="1024"/>
  <g>
    <path class="st5" d="M756.34,537.71l-46.19-156.64c-21.69-58.4-50.45-96.55-80.1-116.8-33.34-23.51-74.01-37.33-117.91-37.33s-84.57,13.82-117.91,37.33c-33.1,23.53-60.97,64.07-80.6,116.8l-46.09,157.29c-21.28,72.63-12.87,150.73,23.4,217.16l.17.31c13.88,25.43,40.55,41.25,69.52,41.25h302.67c28.9,0,55.5-15.74,69.42-41.06h0c36.65-66.71,45.16-145.29,23.63-218.3Z"/>
    <rect x="317" y="279.43" width="390" height="43.59" rx="21.79" ry="21.79"/>
    <rect x="292" y="322.98" width="440" height="43.59" rx="21.79" ry="21.79"/>
    <g class="st6">
      <path class="st0" d="M343.69,516.16c4.15-.56,9.21-.79,15.76-.88-.07,7.34-.07,15.17-.07,23.49v41.58c0,8.32,0,16.15.07,23.49-6.55-.09-11.6-.33-15.76-.88-6.41-.86-8.42-2.25-9.55-3.38-1.13-1.13-2.52-3.13-3.38-9.55-.92-6.84-.95-16.12-.95-30.47s.03-23.63.95-30.47c.86-6.41,2.25-8.42,3.38-9.55,1.13-1.13,3.13-2.52,9.55-3.38Z"/>
      <path class="st0" d="M664.82,515.28c.07,7.34.07,15.17.07,23.49v41.58c0,8.32,0,16.15-.07,23.49,6.55-.09,11.6-.33,15.76-.88,6.41-.86,8.42-2.25,9.55-3.38s2.52-3.13,3.38-9.55c.92-6.84.95-16.12.95-30.47s-.03-23.63-.95-30.47c-.86-6.41-2.25-8.42-3.38-9.55s-3.13-2.52-9.55-3.38c-4.15-.56-9.21-.79-15.76-.88Z"/>
      <path class="st0" d="M401.93,449.36c5.46-5.45,13.11-9.01,27.58-10.96,14.89-2,34.62-2.03,62.91-2.03h39.42c28.29,0,48.02.03,62.91,2.03,14.46,1.94,22.12,5.5,27.58,10.96,5.46,5.45,9.01,13.11,10.96,27.58,2,14.89,2.03,34.62,2.03,62.91v39.42c0,28.29-.03,48.02-2.03,62.91-1.95,14.46-5.5,22.12-10.96,27.58s-13.11,9.01-27.58,10.96c-14.89,2-34.62,2.03-62.91,2.03h-39.42c-28.29,0-48.02-.03-62.91-2.03-14.46-1.95-22.12-5.5-27.58-10.96-5.45-5.46-9.01-13.11-10.96-27.58-2-14.89-2.03-34.62-2.03-62.91v-39.42c0-28.29.03-48.02,2.03-62.91,1.94-14.46,5.5-22.12,10.96-27.58Z"/>
    </g>
    <path class="st4" d="M467.78,520.14c0-8.16-6.62-14.78-14.78-14.78s-14.78,6.62-14.78,14.78v19.71c0,8.16,6.62,14.78,14.78,14.78s14.78-6.62,14.78-14.78v-19.71Z"/>
    <path class="st4" d="M571.26,505.36c8.16,0,14.78,6.62,14.78,14.78v19.71c0,8.16-6.62,14.78-14.78,14.78s-14.78-6.62-14.78-14.78v-19.71c0-8.16,6.62-14.78,14.78-14.78Z"/>
    <path class="st2" d="M481.44,596.9c.14.09.47.3.98.59,1.03.58,2.81,1.48,5.34,2.43,5.02,1.88,13.12,3.99,24.37,3.99s19.35-2.1,24.38-3.99c2.53-.95,4.3-1.85,5.33-2.43.52-.29.85-.5.99-.59l.05-.04c6.52-4.73,15.65-3.36,20.5,3.1,4.9,6.53,3.58,15.8-2.96,20.7l-.02.02-.02.02-.05.04-.12.09-.3.22c-.23.16-.51.35-.85.58-.68.45-1.58,1.01-2.71,1.64-2.25,1.27-5.4,2.83-9.45,4.34-8.12,3.04-19.73,5.87-34.76,5.87s-26.64-2.82-34.75-5.87c-4.04-1.52-7.19-3.08-9.45-4.34-1.13-.63-2.03-1.2-2.71-1.64-.34-.22-.62-.42-.85-.58l-.3-.22-.12-.09-.05-.04-.05-.04c-6.53-4.9-7.86-14.16-2.96-20.7,4.85-6.46,13.98-7.83,20.5-3.1h-.02s.07.04.07.04ZM481.5,596.95l.04.03-.1-.07.06.05Z"/>
    <path class="st1" d="M556.35,332.89c0,19.31-12.34,35.74-29.57,41.82v32.09h6.01c26.96,0,48.68,0,65.77,2.3,17.74,2.39,32.68,7.49,44.54,19.35,11.86,11.86,16.97,26.8,19.35,44.54.53,3.98.94,8.21,1.26,12.7,7.78.09,14.71.37,20.66,1.17,9.69,1.3,18.98,4.24,26.51,11.77,7.53,7.54,10.47,16.82,11.77,26.51,1.22,9.04,1.21,20.33,1.21,33.44v1.95c0,13.1,0,24.4-1.21,33.44-1.3,9.69-4.24,18.98-11.77,26.51-7.54,7.53-16.82,10.47-26.51,11.77-5.95.8-12.88,1.07-20.66,1.17-.32,4.49-.73,8.72-1.26,12.7-2.38,17.74-7.49,32.68-19.35,44.54-11.87,11.86-26.8,16.97-44.54,19.35-17.09,2.3-38.82,2.3-65.77,2.3h-41.58c-26.95,0-48.68,0-65.77-2.3-17.74-2.38-32.68-7.49-44.54-19.35-11.86-11.87-16.97-26.8-19.35-44.54-.53-3.98-.95-8.21-1.26-12.7-7.78-.09-14.71-.37-20.66-1.17-9.69-1.3-18.98-4.24-26.51-11.77-7.53-7.54-10.47-16.82-11.77-26.51-1.22-9.04-1.21-20.33-1.21-33.44v-1.95c0-13.1,0-24.4,1.21-33.44,1.3-9.69,4.24-18.98,11.77-26.51,7.53-7.53,16.82-10.47,26.51-11.77,5.95-.8,12.88-1.07,20.66-1.17.31-4.49.73-8.72,1.26-12.7,2.39-17.74,7.49-32.68,19.35-44.54,11.86-11.86,26.8-16.97,44.54-19.35,17.09-2.3,38.81-2.3,65.77-2.3h6.01v-32.09c-17.22-6.09-29.57-22.52-29.57-41.82,0-24.49,19.86-44.35,44.35-44.35s44.35,19.86,44.35,44.35ZM497.22,332.89c0-8.16,6.62-14.78,14.78-14.78s14.78,6.62,14.78,14.78-6.62,14.78-14.78,14.78-14.78-6.62-14.78-14.78ZM343.56,516.16c4.15-.56,9.21-.79,15.76-.88-.07,7.34-.07,15.17-.07,23.49v41.58c0,8.32,0,16.15.07,23.49-6.55-.09-11.6-.33-15.76-.88-6.41-.86-8.42-2.25-9.55-3.38-1.13-1.13-2.52-3.13-3.38-9.55-.92-6.84-.95-16.12-.95-30.47s.03-23.63.95-30.47c.86-6.41,2.25-8.42,3.38-9.55,1.13-1.13,3.13-2.52,9.55-3.38ZM664.69,515.28c.07,7.34.07,15.17.07,23.49v41.58c0,8.32,0,16.15-.07,23.49,6.55-.09,11.6-.33,15.76-.88,6.41-.86,8.42-2.25,9.55-3.38s2.52-3.13,3.38-9.55c.92-6.84.95-16.12.95-30.47s-.03-23.63-.95-30.47c-.86-6.41-2.25-8.42-3.38-9.55s-3.13-2.52-9.55-3.38c-4.15-.56-9.21-.79-15.76-.88ZM401.8,449.36c5.46-5.45,13.11-9.01,27.58-10.96,14.89-2,34.62-2.03,62.91-2.03h39.42c28.29,0,48.02.03,62.91,2.03,14.46,1.94,22.12,5.5,27.58,10.96,5.46,5.45,9.01,13.11,10.96,27.58,2,14.89,2.03,34.62,2.03,62.91v39.42c0,28.29-.03,48.02-2.03,62.91-1.95,14.46-5.5,22.12-10.96,27.58s-13.11,9.01-27.58,10.96c-14.89,2-34.62,2.03-62.91,2.03h-39.42c-28.29,0-48.02-.03-62.91-2.03-14.46-1.95-22.12-5.5-27.58-10.96-5.45-5.46-9.01-13.11-10.96-27.58-2-14.89-2.03-34.62-2.03-62.91v-39.42c0-28.29.03-48.02,2.03-62.91,1.94-14.46,5.5-22.12,10.96-27.58Z"/>
  </g>
</svg>