<?xml version="1.0" encoding="UTF-8"?>
<svg id="mosa3ed_kfu_icon" xmlns="http://www.w3.org/2000/svg" version="1.1" viewBox="0 0 1024 1024">
  <!-- Generator: Adobe Illustrator 29.8.1, SVG Export Plug-In . SVG Version: 2.1.1 Build 2)  -->
  <defs>
    <style>
      .st0 {
        fill: #006838;
      }

      .st1 {
        fill: #f9faf6;
      }
    </style>
  </defs>
  <rect class="st1" width="1024" height="1024"/>
  <g>
    <path class="st0" d="M586.1,596.51h-20.86c-5.27,0-9.98,3.72-10.79,8.92-1.02,6.56,4.08,12.26,10.46,12.26h20.86c5.27,0,9.98-3.72,10.79-8.92,1.02-6.56-4.08-12.26-10.46-12.26Z"/>
    <path class="st0" d="M756.15,536.93l-46.19-156.63h-176.82v25.53h79.45c26.33,0,47.68,21.35,47.68,47.68v180.1c0,26.33-21.35,47.68-47.68,47.68h-201.29c-26.33,0-47.68-21.35-47.68-47.68v-180.1c0-26.33,21.35-47.68,47.68-47.68h79.45v-25.53h-177.33l-46.09,157.29c-21.28,72.62-12.87,150.73,23.4,217.16l.17.3c13.89,25.43,40.55,41.25,69.52,41.25h302.67c28.9,0,55.5-15.74,69.41-41.07h0c36.65-66.71,45.16-145.29,23.63-218.3h0ZM342.44,617.7h-10.59c-17.56,0-31.78-14.23-31.78-31.78v-63.56c0-17.56,14.23-31.78,31.78-31.78h10.59v127.13ZM723.82,585.92c0,17.56-14.23,31.78-31.78,31.78h-10.59v-127.13h10.59c17.56,0,31.78,14.23,31.78,31.78v63.56Z"/>
    <path class="st0" d="M501.35,596.51c-6.38,0-11.49,5.71-10.46,12.26.81,5.21,5.52,8.92,10.79,8.92h20.55c5.27,0,9.98-3.72,10.79-8.92,1.02-6.56-4.08-12.26-10.46-12.26h-21.2Z"/>
    <circle class="st0" cx="448.38" cy="511.76" r="26.49"/>
    <circle class="st0" cx="575.5" cy="511.76" r="26.49"/>
    <path class="st0" d="M458.97,596.51h-20.86c-5.27,0-9.98,3.72-10.79,8.92-1.02,6.56,4.08,12.26,10.46,12.26h20.86c5.27,0,9.98-3.72,10.79-8.92,1.02-6.56-4.08-12.26-10.46-12.26Z"/>
    <rect class="st0" x="332.35" y="278.66" width="363.22" height="36.32" rx="14.97" ry="14.97"/>
    <rect class="st0" x="302.08" y="329.47" width="423.76" height="36.32" rx="14.97" ry="14.97"/>
    <path class="st0" d="M629.84,263.5c-33.34-23.51-74.01-37.33-117.9-37.33s-84.57,13.81-117.9,37.33h235.82-.01Z"/>
  </g>
</svg>