<?xml version="1.0" encoding="UTF-8"?>
<svg id="Layer_1" xmlns="http://www.w3.org/2000/svg" version="1.1" viewBox="0 0 260 100">
  <!-- Generator: Adobe Illustrator 29.1.0, SVG Export Plug-In . SVG Version: 2.1.0 Build 142)  -->
  <defs>
    <style>
      .st0 {
        fill: #c29943;
      }

      .st1 {
        fill: #005773;
      }

      .st2 {
        fill: #58595b;
      }
    </style>
  </defs>
  <path class="st2" d="M232.61,77.68c.14.09.28.16.43.21.15.05.3.08.46.09.15.01.3.02.44.02h6.99c.1,0,.14-.05.14-.14v-.82c0-.1-.05-.14-.14-.14h-3.15c-.09-.03-.21-.08-.36-.16-.15-.08-.31-.2-.46-.36-.15-.16-.28-.36-.4-.61s-.17-.54-.17-.89c0-.52.15-.95.44-1.3.29-.35.73-.52,1.33-.52.66,0,1.2.25,1.64.74.06.07.13.07.2.01l.64-.51c.08-.06.09-.12.04-.2-.25-.36-.58-.64-1-.85-.42-.2-.91-.3-1.48-.3-.63,0-1.14.1-1.55.29-.4.19-.72.44-.96.73-.23.29-.4.61-.48.96-.09.35-.13.67-.13.96,0,.46.08.86.24,1.19.16.33.35.61.58.82h-2.06c-.21,0-.41-.09-.6-.26-.19-.17-.29-.5-.3-.99,0-.09.02-.19.02-.3,0-.1,0-.21,0-.31,0-1.09-.25-1.88-.74-2.36-.49-.49-1.17-.73-2.03-.73s-1.54.24-2.03.73c-.49.49-.74,1.28-.74,2.36v.29c0,.09,0,.18.01.28,0,.25-.03.45-.08.62-.05.17-.12.3-.21.4-.09.1-.18.17-.29.21-.11.04-.21.06-.32.06h-1.36c-.24,0-.42-.05-.53-.16-.11-.11-.17-.31-.17-.59v-7.66c0-.09-.05-.14-.15-.14h-.93c-.1,0-.14.05-.14.14v7.73c0,.62.13,1.07.39,1.36.26.29.7.43,1.3.43h1.48c.27,0,.57-.04.88-.12.32-.08.58-.27.78-.58.24.28.54.48.88.6s.75.19,1.2.19.84-.06,1.19-.18c.35-.12.64-.32.88-.6.1.15.21.27.35.36ZM231.37,76.52c-.25.31-.64.47-1.18.47s-.93-.16-1.18-.47c-.25-.31-.37-.81-.37-1.49,0-.62.12-1.11.37-1.46.25-.35.64-.53,1.18-.53s.94.18,1.18.53.37.84.37,1.46c0,.68-.12,1.18-.37,1.49ZM93.61,88c-.37,0-.7.04-.98.13-.28.09-.51.2-.7.34-.04.04-.05.09-.02.14l.28.46c.03.05.08.06.14.01.14-.1.31-.18.49-.25.18-.06.42-.1.7-.1.46,0,.77.07.93.22.16.15.25.39.25.72v.35s-.02.06-.06.06h-1.12c-.6,0-1.07.12-1.41.36-.34.24-.51.62-.51,1.13,0,.24.04.45.13.64.09.18.2.33.35.45.15.12.32.21.52.27.2.06.42.09.65.09.38,0,.69-.06.92-.18.24-.12.42-.27.53-.45h.01v.42c0,.07.03.1.1.1h.6c.07,0,.1-.03.1-.1v-3.19c0-.59-.15-1.01-.44-1.26-.29-.25-.79-.38-1.48-.38ZM94.71,91.37c0,.3-.11.53-.33.7-.22.16-.53.25-.92.25-.33,0-.59-.06-.76-.19-.18-.13-.27-.32-.27-.56,0-.27.1-.47.29-.6.19-.12.51-.19.94-.19h.99s.06.02.06.06v.53ZM24.16,88.22c-.02-.15-.04-.27-.06-.37-.02-.1-.05-.2-.08-.29-.32-.97-1.08-1.46-2.28-1.46h-2.35c-.07,0-.1.03-.1.1v6.64c0,.07.03.1.1.1h2.35c1.2,0,1.96-.49,2.28-1.46.03-.09.05-.19.08-.29.02-.1.04-.22.06-.37.02-.15.03-.33.04-.53,0-.21.01-.46.01-.76s0-.56-.01-.76c0-.21-.02-.39-.04-.53ZM23.27,90.19c0,.18-.02.33-.03.46-.01.12-.03.23-.05.31-.02.08-.04.15-.06.21-.12.34-.3.58-.56.72-.26.14-.6.22-1.02.22h-1.28s-.06-.02-.06-.06v-5.05s.02-.06.06-.06h1.28c.42,0,.76.07,1.02.22.26.14.45.38.56.72.02.06.04.13.06.21.02.08.04.18.05.31.01.12.02.28.03.46,0,.18.01.41.01.67s0,.49-.01.67ZM29.42,90.78c.08,0,.11-.03.11-.1,0-.18,0-.34-.01-.48,0-.14-.02-.26-.03-.37-.01-.11-.03-.2-.05-.29-.02-.08-.04-.17-.07-.25-.14-.42-.37-.74-.71-.96s-.74-.34-1.22-.34-.88.11-1.22.33-.58.54-.71.97c-.05.15-.09.32-.12.51-.02.19-.04.43-.04.71s.01.52.04.7c.03.19.07.36.12.51.14.42.37.75.71.97.34.22.76.34,1.26.34.43,0,.81-.08,1.14-.23s.59-.35.79-.59c.04-.05.04-.1-.01-.14l-.42-.37s-.1-.03-.15.02c-.14.15-.31.28-.51.38-.21.1-.46.15-.75.15-.31,0-.57-.07-.78-.21-.21-.14-.37-.35-.46-.63-.03-.08-.05-.16-.06-.25-.01-.09-.02-.2-.02-.33,0-.04.02-.06.06-.06h3.11ZM26.32,89.5c.08-.24.22-.42.42-.55.2-.13.43-.19.71-.19s.52.07.71.19c.2.13.33.31.42.55.05.14.07.32.07.54,0,.04-.02.06-.06.06h-2.28s-.06-.02-.06-.06c0-.22.02-.4.07-.54ZM52.56,88.11c-.07,0-.1.03-.1.1v4.62c0,.07.03.1.1.1h.66c.07,0,.1-.03.1-.1v-4.62c0-.07-.03-.1-.1-.1h-.66ZM107.08,88.11c-.07,0-.1.03-.1.1v4.62c0,.07.03.1.1.1h.66c.07,0,.1-.03.1-.1v-4.62c0-.07-.03-.1-.1-.1h-.66ZM107.06,86.09c-.07,0-.1.03-.1.1v.73c0,.07.03.1.1.1h.7c.07,0,.1-.03.1-.1v-.73c0-.07-.03-.1-.1-.1h-.7ZM99.92,88.1c-.17-.06-.36-.1-.56-.1-.33,0-.6.07-.82.2-.22.13-.38.3-.49.51h-.01v-.49c0-.07-.03-.1-.1-.1h-.66c-.07,0-.1.03-.1.1v4.62c0,.07.03.1.1.1h.66c.07,0,.1-.03.1-.1v-2.64c0-.42.08-.76.25-1.02.16-.26.43-.39.81-.39.14,0,.28.02.4.06.12.04.24.1.36.17.05.04.1.03.14-.02l.38-.49s.03-.09-.02-.14c-.12-.11-.27-.2-.45-.27ZM103.64,88c-.34,0-.62.06-.85.19-.23.12-.41.28-.52.47h-.01v-.44c0-.07-.03-.1-.1-.1h-.66c-.07,0-.1.03-.1.1v4.62c0,.07.03.1.1.1h.66c.07,0,.1-.03.1-.1v-2.87c0-.36.1-.65.31-.86.21-.21.48-.32.82-.32.37,0,.64.11.83.32.18.21.27.52.27.91v2.82c0,.07.03.1.1.1h.66c.07,0,.1-.03.1-.1v-3.02c0-.55-.15-.99-.45-1.32-.3-.33-.72-.49-1.25-.49ZM68.64,86.09c-.51,0-.89.12-1.13.35s-.36.63-.36,1.2v.41s-.02.06-.06.06h-.42c-.07,0-.1.03-.1.1v.48c0,.07.03.1.1.1h.42s.06.02.06.06v3.97c0,.07.03.1.1.1h.66c.07,0,.1-.03.1-.1v-3.97s.02-.06.06-.06h.96c.07,0,.1-.03.1-.1v-.48c0-.07-.03-.1-.1-.1h-.96s-.06-.02-.06-.06v-.45c0-.15.01-.27.03-.36.02-.09.06-.17.11-.22.05-.05.13-.09.23-.11.1-.02.22-.03.38-.03h.27c.07,0,.1-.03.1-.1v-.58c0-.07-.03-.1-.1-.1h-.38ZM58.96,89.16c-.12-.38-.33-.67-.62-.86-.29-.19-.65-.29-1.08-.29-.37,0-.67.06-.89.19-.22.12-.39.28-.51.48h-.01v-.45c0-.07-.03-.1-.1-.1h-.66c-.07,0-.1.03-.1.1v6.43c0,.07.03.1.1.1h.66c.07,0,.1-.03.1-.1v-2.27h.01c.12.19.29.36.51.48.22.13.52.19.89.19.43,0,.79-.1,1.08-.29.29-.19.49-.48.62-.86.07-.19.11-.4.14-.6.02-.21.04-.46.04-.76s-.01-.55-.04-.76c-.02-.2-.07-.4-.14-.6ZM58.23,91.09c-.02.16-.05.31-.09.43-.17.49-.53.73-1.08.73s-.92-.25-1.09-.73c-.04-.11-.07-.25-.09-.41-.02-.16-.03-.36-.03-.6s0-.44.03-.59.05-.29.09-.41c.16-.48.53-.72,1.09-.72s.91.24,1.08.72c.04.13.07.28.09.44.02.16.03.35.03.56s0,.41-.03.57ZM65.42,89.3c-.14-.42-.37-.74-.71-.96-.34-.22-.75-.34-1.23-.34s-.89.11-1.23.34c-.34.22-.58.55-.71.96-.05.17-.1.34-.12.52-.03.18-.04.41-.04.69s.01.51.04.7c.03.18.07.36.12.53.14.41.37.73.71.96.34.23.75.34,1.23.34s.89-.11,1.23-.34c.34-.23.58-.55.71-.96.05-.17.1-.34.12-.53.03-.18.04-.42.04-.7s-.01-.51-.04-.69c-.03-.18-.07-.36-.12-.52ZM64.68,91.09c-.02.14-.05.28-.09.42-.08.24-.22.43-.41.56-.19.13-.43.2-.7.2s-.51-.07-.7-.2c-.19-.13-.33-.32-.41-.56-.04-.13-.07-.27-.09-.42s-.03-.33-.03-.57,0-.42.03-.56c.02-.14.05-.28.09-.41.08-.24.22-.43.41-.56.19-.13.42-.2.7-.2s.51.07.7.2c.19.13.33.32.41.56.04.13.07.27.09.41.02.14.03.33.03.56s0,.42-.03.57ZM90.36,90.78c.08,0,.11-.03.11-.1,0-.18,0-.34-.01-.48,0-.14-.02-.26-.03-.37-.01-.11-.03-.2-.05-.29-.02-.08-.04-.17-.07-.25-.14-.42-.37-.74-.71-.96-.34-.22-.74-.34-1.22-.34s-.88.11-1.22.33c-.34.22-.58.54-.71.97-.05.15-.09.32-.12.51-.02.19-.04.43-.04.71s.01.52.04.7c.03.19.07.36.12.51.14.42.37.75.71.97.34.22.76.34,1.26.34.43,0,.81-.08,1.13-.23s.59-.35.79-.59c.04-.05.04-.1-.01-.14l-.42-.37s-.1-.03-.15.02c-.14.15-.31.28-.51.38-.21.1-.46.15-.75.15s-.57-.07-.78-.21c-.21-.14-.37-.35-.46-.63-.03-.08-.05-.16-.06-.25-.01-.09-.02-.2-.02-.33,0-.04.02-.06.06-.06h3.11ZM87.25,89.5c.08-.24.22-.42.42-.55.2-.13.43-.19.71-.19s.52.07.71.19c.2.13.33.31.42.55.05.14.07.32.07.54,0,.04-.02.06-.06.06h-2.28s-.06-.02-.06-.06c0-.22.02-.4.07-.54ZM49.12,88c-.34,0-.62.06-.85.19-.23.12-.41.28-.52.47h-.01v-2.46c0-.07-.03-.1-.1-.1h-.66c-.07,0-.1.03-.1.1v6.64c0,.07.03.1.1.1h.66c.07,0,.1-.03.1-.1v-2.87c0-.36.1-.65.31-.86.21-.21.48-.32.82-.32.37,0,.65.11.83.32.18.21.27.52.27.91v2.82c0,.07.03.1.1.1h.66c.07,0,.1-.03.1-.1v-3.02c0-.55-.15-.99-.45-1.32-.3-.33-.72-.49-1.25-.49ZM52.53,86.09c-.07,0-.1.03-.1.1v.73c0,.07.03.1.1.1h.7c.07,0,.1-.03.1-.1v-.73c0-.07-.03-.1-.1-.1h-.7ZM44.04,90.11l-.52-.05c-.37-.03-.63-.1-.76-.21-.14-.1-.21-.25-.21-.45s.08-.35.24-.48c.16-.12.39-.19.7-.19.25,0,.5.04.73.12.24.08.43.17.59.27.05.03.1.03.14-.02l.35-.43c.04-.06.03-.11-.02-.14-.21-.15-.46-.28-.75-.38-.3-.1-.63-.15-.99-.15-.58,0-1.03.13-1.35.39-.32.26-.48.62-.48,1.08,0,.4.12.71.37.94s.61.37,1.1.42l.52.05c.38.04.64.12.77.23.13.11.19.26.19.45,0,.21-.09.39-.27.53-.18.14-.45.21-.81.21-.3,0-.58-.05-.85-.16-.26-.11-.49-.24-.67-.39-.05-.05-.1-.05-.14,0l-.42.44s-.05.09,0,.14c.1.09.22.17.35.26.13.08.28.16.45.23.17.07.35.13.56.17.21.04.43.07.67.07.64,0,1.14-.14,1.48-.43.34-.29.51-.67.51-1.15,0-.39-.12-.7-.37-.94-.24-.23-.62-.38-1.12-.42ZM76.91,89.87c-.07,0-.1.03-.1.1v.58c0,.07.03.1.1.1h2.73c.07,0,.1-.03.1-.1v-.58c0-.07-.03-.1-.1-.1h-2.73ZM82.08,92.1s-.06-.02-.06-.06v-5.84c0-.07-.03-.1-.1-.1h-.72c-.07,0-.1.03-.1.1v6.64c0,.07.03.1.1.1h4.21c.07,0,.1-.03.1-.1v-.63c0-.07-.03-.1-.1-.1h-3.33ZM32.67,88c-.37,0-.7.04-.98.13-.28.09-.51.2-.7.34-.04.04-.05.09-.02.14l.28.46c.03.05.08.06.14.01.14-.1.31-.18.49-.25.18-.06.42-.1.7-.1.46,0,.77.07.93.22.16.15.25.39.25.72v.35s-.02.06-.06.06h-1.12c-.6,0-1.07.12-1.41.36-.34.24-.51.62-.51,1.13,0,.24.04.45.13.64.09.18.2.33.35.45.15.12.32.21.52.27.2.06.42.09.65.09.38,0,.68-.06.92-.18.24-.12.42-.27.53-.45h.01v.42c0,.07.03.1.1.1h.6c.07,0,.1-.03.1-.1v-3.19c0-.59-.15-1.01-.44-1.26-.29-.25-.79-.38-1.48-.38ZM33.77,91.37c0,.3-.11.53-.33.7-.22.16-.53.25-.92.25-.33,0-.58-.06-.76-.19-.18-.13-.27-.32-.27-.56,0-.27.1-.47.29-.6.19-.12.51-.19.94-.19h.99s.06.02.06.06v.53ZM38.5,88c-.34,0-.62.06-.85.19-.23.12-.41.28-.52.47h-.01v-.44c0-.07-.03-.1-.1-.1h-.66c-.07,0-.1.03-.1.1v4.62c0,.07.03.1.1.1h.66c.07,0,.1-.03.1-.1v-2.87c0-.36.1-.65.31-.86.21-.21.48-.32.82-.32.37,0,.65.11.83.32.18.21.27.52.27.91v2.82c0,.07.03.1.1.1h.66c.07,0,.1-.03.1-.1v-3.02c0-.55-.15-.99-.45-1.32-.3-.33-.72-.49-1.25-.49ZM71.51,86.09c-.07,0-.1.03-.1.1v6.64c0,.07.03.1.1.1h4.21c.07,0,.1-.03.1-.1v-.63c0-.07-.03-.1-.1-.1h-3.33s-.06-.02-.06-.06v-2.08s.02-.06.06-.06h2.82c.07,0,.1-.03.1-.1v-.63c0-.07-.03-.1-.1-.1h-2.82s-.06-.02-.06-.06v-2.01s.02-.06.06-.06h3.33c.07,0,.1-.03.1-.1v-.63c0-.07-.03-.1-.1-.1h-4.21ZM203.46,89.54c.08-.25.22-.44.41-.57.19-.12.42-.19.69-.19.25,0,.45.04.61.13.16.09.31.22.45.39.04.05.09.05.14.01l.45-.36c.05-.04.07-.09.03-.14-.18-.26-.41-.45-.69-.6-.28-.14-.61-.22-.99-.22-.47,0-.88.11-1.22.33-.34.22-.58.54-.72.97-.05.15-.09.32-.11.52-.03.2-.04.43-.04.7s.01.51.04.71c.03.2.07.37.11.52.14.42.38.74.72.97.34.22.75.33,1.22.33.38,0,.71-.07.99-.22.28-.14.52-.34.69-.6.03-.05.02-.1-.03-.14l-.45-.36c-.05-.04-.1-.04-.14,0-.14.17-.29.31-.45.39-.16.09-.36.13-.61.13-.27,0-.5-.06-.69-.19-.19-.12-.33-.31-.41-.57-.04-.13-.07-.27-.09-.43-.02-.16-.03-.34-.03-.56s0-.4.03-.55c.02-.15.05-.29.09-.42ZM191.47,86.09c-.07,0-.1.03-.1.1v.63c0,.07.03.1.1.1h1.91s.06.02.06.06v5.84c0,.07.03.1.1.1h.72c.07,0,.1-.03.1-.1v-5.84s.02-.06.06-.06h1.91c.07,0,.1-.03.1-.1v-.63c0-.07-.03-.1-.1-.1h-4.87ZM177.62,88.11c-.07,0-.1.03-.1.1v4.62c0,.07.03.1.1.1h.66c.07,0,.1-.03.1-.1v-4.62c0-.07-.03-.1-.1-.1h-.66ZM158.79,88.1c-.17-.06-.36-.1-.56-.1-.33,0-.6.07-.82.2-.22.13-.38.3-.49.51h-.01v-.49c0-.07-.03-.1-.1-.1h-.66c-.07,0-.1.03-.1.1v4.62c0,.07.03.1.1.1h.66c.07,0,.1-.03.1-.1v-2.64c0-.42.08-.76.25-1.02s.43-.39.81-.39c.14,0,.28.02.4.06.12.04.24.1.36.17.05.04.1.03.14-.02l.38-.49s.03-.09-.02-.14c-.12-.11-.27-.2-.45-.27ZM187.61,88c-.34,0-.62.06-.85.19s-.41.28-.52.47h-.01v-.44c0-.07-.03-.1-.1-.1h-.66c-.07,0-.1.03-.1.1v4.62c0,.07.03.1.1.1h.66c.07,0,.1-.03.1-.1v-2.87c0-.36.1-.65.31-.86.21-.21.48-.32.82-.32.37,0,.64.11.83.32.18.21.27.52.27.91v2.82c0,.07.03.1.1.1h.66c.07,0,.1-.03.1-.1v-3.02c0-.55-.15-.99-.45-1.32-.3-.33-.72-.49-1.25-.49ZM177.6,86.09c-.07,0-.1.03-.1.1v.73c0,.07.03.1.1.1h.7c.07,0,.1-.03.1-.1v-.73c0-.07-.03-.1-.1-.1h-.7ZM165.56,88c-.38,0-.69.07-.95.2-.26.13-.47.32-.64.55h-.01c-.14-.24-.33-.43-.57-.56-.24-.13-.53-.2-.87-.2s-.62.06-.85.19c-.23.12-.41.28-.52.47h-.01v-.44c0-.07-.03-.1-.1-.1h-.66c-.07,0-.1.03-.1.1v4.62c0,.07.03.1.1.1h.66c.07,0,.1-.03.1-.1v-2.87c0-.36.1-.65.31-.86.21-.21.48-.32.82-.32.37,0,.65.11.83.32.18.21.27.52.27.91v2.82c0,.07.03.1.1.1h.66c.07,0,.1-.03.1-.1v-2.87c0-.36.11-.65.32-.86.21-.21.48-.32.81-.32.37,0,.65.11.83.32.18.21.27.52.27.91v2.82c0,.07.03.1.1.1h.66c.07,0,.1-.03.1-.1v-3.02c0-.55-.15-.99-.45-1.32-.3-.33-.73-.49-1.31-.49ZM170.7,88c-.37,0-.69.04-.98.13-.28.09-.51.2-.7.34-.04.04-.05.09-.02.14l.28.46c.03.05.08.06.14.01.14-.1.31-.18.49-.25.19-.06.42-.1.7-.1.46,0,.77.07.93.22.16.15.25.39.25.72v.35s-.02.06-.06.06h-1.12c-.6,0-1.07.12-1.41.36-.34.24-.51.62-.51,1.13,0,.24.04.45.13.64.09.18.2.33.35.45.15.12.32.21.52.27.2.06.42.09.65.09.38,0,.68-.06.92-.18.24-.12.42-.27.53-.45h.01v.42c0,.07.03.1.1.1h.6c.07,0,.1-.03.1-.1v-3.19c0-.59-.15-1.01-.44-1.26-.29-.25-.79-.38-1.48-.38ZM171.8,91.37c0,.3-.11.53-.33.7s-.53.25-.92.25c-.33,0-.58-.06-.76-.19-.18-.13-.27-.32-.27-.56,0-.27.1-.47.29-.6.19-.12.51-.19.94-.19h.99s.06.02.06.06v.53ZM175.3,88.11s-.06-.02-.06-.06v-1.36c0-.07-.03-.1-.1-.1h-.66c-.07,0-.1.03-.1.1v1.36s-.02.06-.06.06h-.41c-.07,0-.1.03-.1.1v.48c0,.07.03.1.1.1h.41s.06.02.06.06v2.76c0,.48.1.82.3,1.04.2.22.54.33,1.02.33h.38c.07,0,.1-.03.1-.1v-.58c0-.07-.03-.1-.1-.1h-.22c-.22,0-.38-.04-.48-.13-.1-.08-.15-.25-.15-.49v-2.73s.02-.06.06-.06h.78c.07,0,.1-.03.1-.1v-.48c0-.07-.03-.1-.1-.1h-.78ZM183.81,89.3c-.14-.42-.37-.74-.71-.96-.34-.22-.75-.34-1.23-.34s-.89.11-1.23.34-.58.55-.71.96c-.05.17-.1.34-.12.52-.03.18-.04.41-.04.69s.01.51.04.7c.03.18.07.36.12.53.14.41.37.73.71.96.34.23.75.34,1.23.34s.89-.11,1.23-.34c.34-.23.58-.55.71-.96.05-.17.1-.34.12-.53.03-.18.04-.42.04-.7s-.01-.51-.04-.69c-.03-.18-.07-.36-.12-.52ZM183.07,91.09c-.02.14-.05.28-.09.42-.08.24-.22.43-.41.56-.19.13-.42.2-.7.2s-.51-.07-.7-.2c-.19-.13-.33-.32-.41-.56-.04-.13-.07-.27-.09-.42-.02-.14-.03-.33-.03-.57s0-.42.03-.56c.02-.14.05-.28.09-.41.08-.24.22-.43.41-.56.19-.13.42-.2.7-.2s.51.07.7.2c.19.13.33.32.41.56.04.13.07.27.09.41.02.14.03.33.03.56s0,.42-.03.57ZM235.21,88.11c-.07,0-.1.03-.1.1v.45h-.01c-.12-.2-.28-.36-.5-.48-.22-.12-.51-.18-.87-.18-.42,0-.77.1-1.05.3-.28.2-.48.49-.61.87-.06.18-.1.37-.13.56-.02.19-.04.43-.04.71s.01.52.04.71c.02.19.07.38.13.56.12.38.33.67.61.87.28.2.63.3,1.05.3.36,0,.65-.06.87-.18.22-.12.38-.29.5-.49h.01v.57c0,.44-.1.77-.31.99-.21.21-.52.32-.93.32-.24,0-.45-.04-.63-.13-.18-.08-.36-.2-.53-.36-.05-.05-.11-.05-.15,0l-.42.41s-.05.09-.01.14c.16.21.4.39.71.52.31.13.64.2.99.2.7,0,1.23-.18,1.6-.55.37-.37.55-.89.55-1.58v-4.51c0-.07-.03-.1-.1-.1h-.66ZM235.08,90.97c-.02.15-.05.28-.09.4-.17.48-.52.72-1.05.72s-.87-.24-1.04-.72c-.08-.24-.12-.55-.12-.93,0-.19.01-.37.03-.52.02-.15.05-.29.09-.42.17-.47.52-.71,1.04-.71s.88.24,1.05.71c.04.13.07.26.09.41.02.14.03.32.03.53s0,.38-.03.53ZM230.67,89.3c-.14-.42-.37-.74-.71-.96s-.75-.34-1.23-.34-.89.11-1.23.34c-.34.22-.58.55-.71.96-.05.17-.1.34-.12.52-.03.18-.04.41-.04.69s.01.51.04.7c.03.18.07.36.12.53.14.41.37.73.71.96.34.23.75.34,1.23.34s.89-.11,1.23-.34c.34-.23.58-.55.71-.96.05-.17.1-.34.12-.53.03-.18.04-.42.04-.7s-.01-.51-.04-.69c-.03-.18-.07-.36-.12-.52ZM229.93,91.09c-.02.14-.05.28-.09.42-.08.24-.22.43-.41.56-.19.13-.42.2-.7.2s-.51-.07-.7-.2c-.19-.13-.33-.32-.41-.56-.04-.13-.07-.27-.09-.42-.02-.14-.03-.33-.03-.57s0-.42.03-.56c.02-.14.05-.28.09-.41.08-.24.22-.43.41-.56.19-.13.42-.2.7-.2s.51.07.7.2c.19.13.33.32.41.56.04.13.07.27.09.41.02.14.03.33.03.56s0,.42-.03.57ZM225.41,92.2c-.17,0-.3-.04-.37-.12-.08-.08-.12-.22-.12-.42v-5.47c0-.07-.03-.1-.1-.1h-.66c-.07,0-.1.03-.1.1v5.52c0,.44.09.76.28.96.18.2.49.31.92.31h.35c.07,0,.1-.03.1-.1v-.58c0-.07-.03-.1-.1-.1h-.19ZM241.37,88.11h-.7c-.06,0-.1.03-.12.1l-1.24,3.48h-.02l-1.29-3.48c-.02-.07-.06-.1-.12-.1h-.72c-.08,0-.1.03-.08.1l1.81,4.58-.16.44c-.11.28-.23.46-.35.57-.12.1-.28.16-.48.16h-.19c-.07,0-.1.03-.1.1v.58c0,.07.03.1.1.1h.27c.18,0,.35-.02.49-.07.14-.04.28-.12.4-.23.12-.11.23-.26.34-.44.11-.19.21-.42.32-.7l1.94-5.09c.02-.07,0-.1-.08-.1ZM222.53,89.3c-.14-.42-.37-.74-.71-.96-.34-.22-.75-.34-1.23-.34s-.89.11-1.23.34-.58.55-.71.96c-.05.17-.1.34-.12.52-.03.18-.04.41-.04.69s.01.51.04.7c.03.18.07.36.12.53.14.41.37.73.71.96.34.23.75.34,1.23.34s.89-.11,1.23-.34c.34-.23.58-.55.71-.96.05-.17.1-.34.12-.53.03-.18.04-.42.04-.7s-.01-.51-.04-.69c-.03-.18-.07-.36-.12-.52ZM221.78,91.09c-.02.14-.05.28-.09.42-.08.24-.22.43-.41.56-.19.13-.42.2-.7.2s-.51-.07-.7-.2c-.19-.13-.33-.32-.41-.56-.04-.13-.07-.27-.09-.42-.02-.14-.03-.33-.03-.57s0-.42.03-.56c.02-.14.05-.28.09-.41.08-.24.22-.43.41-.56.19-.13.42-.2.7-.2s.51.07.7.2c.19.13.33.32.41.56.04.13.07.27.09.41.02.14.03.33.03.56s0,.42-.03.57ZM209.86,88c-.34,0-.62.06-.85.19-.23.12-.41.28-.52.47h-.01v-2.46c0-.07-.03-.1-.1-.1h-.66c-.07,0-.1.03-.1.1v6.64c0,.07.03.1.1.1h.66c.07,0,.1-.03.1-.1v-2.87c0-.36.1-.65.31-.86.21-.21.48-.32.82-.32.37,0,.65.11.83.32.18.21.27.52.27.91v2.82c0,.07.03.1.1.1h.66c.07,0,.1-.03.1-.1v-3.02c0-.55-.15-.99-.45-1.32-.3-.33-.72-.49-1.25-.49ZM201.26,90.78c.08,0,.11-.03.11-.1,0-.18,0-.34-.01-.48,0-.14-.02-.26-.03-.37-.01-.11-.03-.2-.05-.29-.02-.08-.04-.17-.07-.25-.14-.42-.37-.74-.71-.96-.34-.22-.74-.34-1.22-.34s-.88.11-1.22.33c-.34.22-.58.54-.71.97-.05.15-.09.32-.12.51-.02.19-.04.43-.04.71s.01.52.04.7c.03.19.07.36.12.51.14.42.37.75.71.97.34.22.76.34,1.26.34.43,0,.81-.08,1.14-.23.32-.15.59-.35.79-.59.04-.05.04-.1-.01-.14l-.42-.37s-.1-.03-.15.02c-.14.15-.31.28-.51.38-.21.1-.46.15-.75.15s-.57-.07-.78-.21c-.21-.14-.37-.35-.46-.63-.03-.08-.05-.16-.06-.25-.01-.09-.02-.2-.02-.33,0-.04.02-.06.06-.06h3.11ZM198.16,89.5c.08-.24.22-.42.42-.55.2-.13.43-.19.71-.19s.52.07.71.19c.2.13.33.31.42.55.05.14.07.32.07.54,0,.04-.02.06-.06.06h-2.28s-.06-.02-.06-.06c0-.22.02-.4.07-.54ZM215.44,88c-.34,0-.62.06-.85.19-.23.12-.41.28-.52.47h-.01v-.44c0-.07-.03-.1-.1-.1h-.66c-.07,0-.1.03-.1.1v4.62c0,.07.03.1.1.1h.66c.07,0,.1-.03.1-.1v-2.87c0-.36.1-.65.31-.86.21-.21.48-.32.82-.32.37,0,.64.11.83.32.18.21.27.52.27.91v2.82c0,.07.03.1.1.1h.66c.07,0,.1-.03.1-.1v-3.02c0-.55-.15-.99-.45-1.32-.3-.33-.72-.49-1.25-.49ZM144.17,88c-.34,0-.62.06-.85.19-.23.12-.41.28-.52.47h-.01v-.44c0-.07-.03-.1-.1-.1h-.66c-.07,0-.1.03-.1.1v4.62c0,.07.03.1.1.1h.66c.07,0,.1-.03.1-.1v-2.87c0-.36.1-.65.31-.86.21-.21.48-.32.82-.32.37,0,.64.11.83.32.18.21.27.52.27.91v2.82c0,.07.03.1.1.1h.66c.07,0,.1-.03.1-.1v-3.02c0-.55-.15-.99-.45-1.32-.3-.33-.72-.49-1.25-.49ZM139.41,86.09c-.07,0-.1.03-.1.1v6.64c0,.07.03.1.1.1h.72c.07,0,.1-.03.1-.1v-6.64c0-.07-.03-.1-.1-.1h-.72ZM118.1,88.11c-.07,0-.1.03-.1.1v.45h-.01c-.12-.2-.28-.36-.5-.48-.22-.12-.51-.18-.87-.18-.42,0-.77.1-1.05.3-.28.2-.48.49-.61.87-.06.18-.1.37-.13.56s-.04.43-.04.71.01.52.04.71.07.38.13.56c.12.38.33.67.61.87.28.2.63.3,1.05.3.36,0,.65-.06.87-.18.22-.12.38-.29.5-.49h.01v.57c0,.44-.1.77-.31.99-.21.21-.52.32-.93.32-.24,0-.45-.04-.63-.13-.18-.08-.36-.2-.53-.36-.05-.05-.11-.05-.15,0l-.42.41s-.05.09-.01.14c.16.21.4.39.71.52.31.13.64.2.99.2.7,0,1.23-.18,1.6-.55.37-.37.55-.89.55-1.58v-4.51c0-.07-.03-.1-.1-.1h-.66ZM117.97,90.97c-.02.15-.05.28-.09.4-.17.48-.52.72-1.05.72s-.87-.24-1.04-.72c-.08-.24-.12-.55-.12-.93,0-.19.01-.37.03-.52.02-.15.05-.29.09-.42.17-.47.52-.71,1.04-.71s.88.24,1.05.71c.04.13.07.26.09.41.02.14.03.32.03.53s0,.38-.03.53ZM129.27,88c-.34,0-.62.06-.85.19s-.41.28-.52.47h-.01v-.44c0-.07-.03-.1-.1-.1h-.66c-.07,0-.1.03-.1.1v4.62c0,.07.03.1.1.1h.66c.07,0,.1-.03.1-.1v-2.87c0-.36.1-.65.31-.86.21-.21.48-.32.82-.32.37,0,.64.11.83.32.18.21.27.52.27.91v2.82c0,.07.03.1.1.1h.66c.07,0,.1-.03.1-.1v-3.02c0-.55-.15-.99-.45-1.32-.3-.33-.72-.49-1.25-.49ZM111.78,88c-.34,0-.62.06-.85.19-.23.12-.41.28-.52.47h-.01v-.44c0-.07-.03-.1-.1-.1h-.66c-.07,0-.1.03-.1.1v4.62c0,.07.03.1.1.1h.66c.07,0,.1-.03.1-.1v-2.87c0-.36.1-.65.31-.86.21-.21.48-.32.82-.32.37,0,.64.11.83.32.18.21.27.52.27.91v2.82c0,.07.03.1.1.1h.66c.07,0,.1-.03.1-.1v-3.02c0-.55-.15-.99-.45-1.32-.3-.33-.72-.49-1.25-.49ZM154.51,89.3c-.14-.42-.37-.74-.71-.96-.34-.22-.75-.34-1.23-.34s-.89.11-1.23.34-.58.55-.71.96c-.05.17-.1.34-.12.52-.03.18-.04.41-.04.69s.01.51.04.7c.03.18.07.36.12.53.14.41.37.73.71.96.34.23.75.34,1.23.34s.89-.11,1.23-.34c.34-.23.58-.55.71-.96.05-.17.1-.34.12-.53.03-.18.04-.42.04-.7s-.01-.51-.04-.69c-.03-.18-.07-.36-.12-.52ZM153.76,91.09c-.02.14-.05.28-.09.42-.08.24-.22.43-.41.56-.19.13-.42.2-.7.2s-.51-.07-.7-.2c-.19-.13-.33-.32-.41-.56-.04-.13-.07-.27-.09-.42-.02-.14-.03-.33-.03-.57s0-.42.03-.56c.02-.14.05-.28.09-.41.08-.24.22-.43.41-.56.19-.13.42-.2.7-.2s.51.07.7.2c.19.13.33.32.41.56.04.13.07.27.09.41.02.14.03.33.03.56s0,.42-.03.57ZM123.45,88c-.37,0-.69.04-.98.13-.28.09-.51.2-.7.34-.04.04-.05.09-.02.14l.28.46c.03.05.08.06.14.01.14-.1.31-.18.49-.25.18-.06.42-.1.7-.1.46,0,.77.07.93.22.16.15.25.39.25.72v.35s-.02.06-.06.06h-1.12c-.6,0-1.07.12-1.41.36-.34.24-.51.62-.51,1.13,0,.24.04.45.13.64.09.18.2.33.35.45.15.12.32.21.52.27.2.06.42.09.65.09.38,0,.68-.06.92-.18.24-.12.42-.27.53-.45h.01v.42c0,.07.03.1.1.1h.6c.07,0,.1-.03.1-.1v-3.19c0-.59-.15-1.01-.44-1.26-.29-.25-.79-.38-1.48-.38ZM124.55,91.37c0,.3-.11.53-.33.7s-.53.25-.92.25c-.33,0-.58-.06-.76-.19-.18-.13-.27-.32-.27-.56,0-.27.1-.47.29-.6.19-.12.51-.19.94-.19h.99s.06.02.06.06v.53ZM135.69,86.09c-.07,0-.1.03-.1.1v2.47h-.01c-.12-.19-.29-.35-.51-.48-.22-.12-.52-.19-.89-.19-.43,0-.79.1-1.08.29-.29.19-.49.48-.62.86-.07.19-.11.39-.14.6-.02.21-.04.46-.04.76s.01.56.04.76c.02.21.07.41.14.6.12.38.33.67.62.86.29.19.65.29,1.08.29.37,0,.67-.06.89-.19.22-.13.39-.29.51-.48h.01v.46c0,.07.03.1.1.1h.66c.07,0,.1-.03.1-.1v-6.64c0-.07-.03-.1-.1-.1h-.66ZM135.56,91.12c-.02.16-.05.29-.09.41-.16.49-.53.73-1.09.73s-.91-.25-1.08-.73c-.04-.13-.07-.27-.09-.43-.02-.16-.03-.35-.03-.57s0-.4.03-.56c.02-.16.05-.31.09-.44.17-.48.53-.72,1.08-.72s.92.24,1.09.72c.04.12.07.26.09.41.02.15.03.35.03.59s0,.44-.03.6ZM149.18,86.09c-.51,0-.89.12-1.14.35-.24.23-.36.63-.36,1.2v.41s-.02.06-.06.06h-.42c-.07,0-.1.03-.1.1v.48c0,.07.03.1.1.1h.42s.06.02.06.06v3.97c0,.07.03.1.1.1h.66c.07,0,.1-.03.1-.1v-3.97s.02-.06.06-.06h.95c.07,0,.1-.03.1-.1v-.48c0-.07-.03-.1-.1-.1h-.95s-.06-.02-.06-.06v-.45c0-.15.01-.27.03-.36.02-.09.06-.17.11-.22.05-.05.13-.09.23-.11.1-.02.22-.03.38-.03h.27c.07,0,.1-.03.1-.1v-.58c0-.07-.03-.1-.1-.1h-.38ZM103.53,70.78h.99c.1,0,.15-.05.15-.14v-1.04c0-.09-.05-.14-.15-.14h-.99c-.1,0-.14.05-.14.14v1.04c0,.1.05.14.14.14ZM128.82,70.78h.99c.1,0,.15-.05.15-.14v-1.04c0-.09-.05-.14-.15-.14h-.99c-.1,0-.14.05-.14.14v1.04c0,.1.05.14.14.14ZM99.18,70.78h.99c.1,0,.14-.05.14-.14v-1.04c0-.09-.05-.14-.14-.14h-.99c-.1,0-.14.05-.14.14v1.04c0,.1.05.14.14.14ZM82.74,70.22h.99c.1,0,.14-.05.14-.14v-1.04c0-.1-.05-.14-.14-.14h-.99c-.1,0-.15.05-.15.14v1.04c0,.1.05.14.15.14ZM143.24,70.78h.99c.1,0,.15-.05.15-.14v-1.04c0-.09-.05-.14-.15-.14h-.99c-.1,0-.14.05-.14.14v1.04c0,.1.05.14.14.14ZM92.6,70.78h.99c.1,0,.14-.05.14-.14v-1.04c0-.09-.05-.14-.14-.14h-.99c-.1,0-.15.05-.15.14v1.04c0,.1.05.14.15.14ZM97.41,70.78h.99c.1,0,.14-.05.14-.14v-1.04c0-.09-.05-.14-.14-.14h-.99c-.1,0-.14.05-.14.14v1.04c0,.1.05.14.14.14ZM160.99,81.38v.4c0,.07.03.1.09.1h2.94c.06,0,.09-.03.09-.1v-.4c0-.07-.03-.1-.09-.1h-1.49c-.11-.08-.22-.19-.33-.35-.11-.16-.17-.34-.17-.55s.07-.41.2-.57c.13-.16.33-.24.6-.24.15,0,.28.03.39.09s.22.14.3.23c.04.04.09.03.16-.03l.3-.24s.03-.08,0-.14c-.12-.16-.27-.28-.47-.37-.2-.08-.42-.13-.67-.13-.28,0-.51.04-.7.13-.19.09-.34.2-.46.34-.12.14-.2.29-.25.45-.05.17-.07.32-.07.48,0,.18.02.34.07.49.05.15.11.28.19.39h-.55c-.06,0-.09.03-.09.1ZM75.7,68.34h-.93c-.1,0-.15.05-.15.14v9.37c0,.09.05.14.15.14h.93c.1,0,.14-.05.14-.14v-9.37c0-.09-.05-.14-.14-.14ZM210.22,70.78h.99c.1,0,.15-.05.15-.14v-1.04c0-.09-.05-.14-.15-.14h-.99c-.1,0-.14.05-.14.14v1.04c0,.1.05.14.14.14ZM211.99,70.78h.99c.1,0,.15-.05.15-.14v-1.04c0-.09-.05-.14-.15-.14h-.99c-.1,0-.14.05-.14.14v1.04c0,.1.05.14.14.14ZM145.01,70.78h.99c.1,0,.15-.05.15-.14v-1.04c0-.09-.05-.14-.15-.14h-.99c-.1,0-.14.05-.14.14v1.04c0,.1.05.14.14.14ZM216.14,78h3.22c.37,0,.68-.04.95-.11.26-.08.48-.21.65-.39s.3-.43.38-.75c.08-.31.12-.7.12-1.18v-1.11c0-.87-.23-1.51-.7-1.92-.47-.41-1.07-.61-1.8-.61h-2.13c-.1,0-.14.05-.14.14v.82c0,.1.05.14.14.14h1.68c1.1,0,1.65.48,1.65,1.43v1.14c0,.25-.01.45-.04.61-.03.16-.09.29-.17.39-.09.1-.21.17-.38.21-.16.04-.38.06-.65.06h-2.77c-.1,0-.14.05-.14.14v.82c0,.09.05.14.14.14ZM197.2,70.78h.99c.1,0,.15-.05.15-.14v-1.04c0-.09-.05-.14-.15-.14h-.99c-.1,0-.14.05-.14.14v1.04c0,.1.05.14.14.14ZM80.97,70.22h.99c.1,0,.14-.05.14-.14v-1.04c0-.1-.05-.14-.14-.14h-.99c-.1,0-.15.05-.15.14v1.04c0,.1.05.14.15.14ZM159.1,78h5.99c.61,0,1.04-.14,1.3-.43.26-.29.39-.74.39-1.36v-7.73c0-.09-.05-.14-.14-.14h-.93c-.1,0-.15.05-.15.14v7.66c0,.28-.06.48-.17.59-.11.11-.29.16-.53.16h-1.7v-6.41c0-.09-.05-.14-.14-.14h-.93c-.1,0-.14.05-.14.14v6.41h-2.86c-.1,0-.15.05-.15.14v.82c0,.09.05.14.15.14ZM168.96,78h.93c.1,0,.15-.05.15-.14v-9.37c0-.09-.05-.14-.15-.14h-.93c-.1,0-.14.05-.14.14v9.37c0,.09.05.14.14.14ZM195.43,70.78h.99c.1,0,.15-.05.15-.14v-1.04c0-.09-.05-.14-.15-.14h-.99c-.1,0-.14.05-.14.14v1.04c0,.1.05.14.14.14ZM203.92,78h.93c.1,0,.14-.05.14-.14v-9.37c0-.09-.05-.14-.14-.14h-.93c-.1,0-.14.05-.14.14v9.37c0,.09.05.14.14.14ZM89.89,80.64c.1,0,.15-.05.15-.14v-1.04c0-.1-.05-.14-.15-.14h-.99c-.1,0-.14.05-.14.14v1.04c0,.09.05.14.14.14h.99ZM127.04,77.99s.04,0,.06,0h1.13c.61,0,1.04-.14,1.3-.43.26-.29.39-.74.39-1.36v-3.88c0-.09-.05-.14-.14-.14h-.93c-.1,0-.15.05-.15.14v3.81c0,.28-.06.48-.17.59-.11.11-.29.16-.53.16h-.91s-.03,0-.05,0c-.02,0-.03,0-.06,0h-1.17c-.28,0-.56-.03-.83-.09-.27-.06-.54-.14-.82-.24-.28-.1-.56-.21-.85-.33s-.59-.23-.9-.35c-.09-.03-.15,0-.17.1l-.32.85c-.03.09,0,.14.09.17.49.18.93.34,1.31.47.38.13.7.26.96.39.26.13.45.27.58.42.13.15.2.33.2.54,0,.24-.11.44-.34.61-.23.17-.63.26-1.21.26h-3.2c-.32,0-.62-.04-.91-.11-.29-.07-.54-.19-.76-.35-.22-.16-.4-.38-.53-.65-.13-.27-.2-.6-.2-.99,0-.43.08-.83.24-1.22.16-.39.33-.71.5-.98.05-.08.03-.14-.04-.18l-.8-.43c-.1-.06-.16-.05-.2.01-.25.35-.47.78-.66,1.3-.19.52-.28,1.05-.28,1.61,0,.97.29,1.73.88,2.28.59.55,1.45.83,2.58.83h3.39c.5,0,.93-.05,1.27-.16.35-.11.63-.25.84-.43.21-.18.36-.38.46-.6.09-.22.14-.45.14-.67,0-.21-.03-.4-.1-.58-.07-.18-.12-.3-.17-.38h1.04s.03,0,.05,0ZM134.24,71.94c-.39,0-.75.06-1.09.19-.34.13-.64.32-.89.58-.26.26-.46.59-.6.99-.15.4-.22.87-.22,1.41s.06.99.19,1.36c.13.37.31.67.55.89.24.22.53.38.88.48.34.1.73.15,1.15.15h1.55v.37c0,.26-.03.49-.1.66-.07.18-.16.31-.28.41-.12.1-.26.17-.43.21-.16.04-.34.06-.54.06h-1.74c-.1,0-.15.05-.15.14v.82c0,.09.05.14.15.14h1.8c.38,0,.72-.05,1.03-.14.31-.1.57-.24.79-.44.22-.2.39-.45.51-.77.12-.31.18-.69.18-1.14v-3.31c0-1.09-.24-1.88-.73-2.36-.48-.49-1.15-.73-2.02-.73ZM135.76,76.89h-1.46c-.54,0-.95-.13-1.22-.38-.28-.26-.41-.72-.41-1.39,0-.63.14-1.13.42-1.51.28-.38.67-.57,1.16-.57.54,0,.93.18,1.17.53s.36.84.36,1.46v1.86ZM201.6,68.34h-.93c-.1,0-.15.05-.15.14v7.66c0,.28-.06.48-.17.59-.11.11-.29.16-.53.16h-1.09c-.4,0-.71-.08-.95-.24-.24-.16-.36-.4-.36-.72v-3.59c0-.09-.05-.14-.14-.14h-.93c-.1,0-.15.05-.15.14v3.81c0,.28-.06.48-.17.59-.11.11-.29.16-.53.16h-.99s-.03,0-.05,0c-.02,0-.03,0-.06,0h-2.36c-.07,0-.14,0-.21-.03.19-.11.39-.26.59-.45.2-.18.38-.39.54-.62.16-.23.29-.49.39-.77.1-.28.15-.57.15-.87,0-.68-.25-1.22-.74-1.62-.49-.4-1.26-.6-2.29-.6-.33,0-.64.02-.94.07-.3.05-.57.11-.82.18-.25.08-.46.16-.65.24-.19.09-.34.16-.46.23-.1.06-.14.15-.14.28v.85s.01.09.04.14c.02.04.08.09.17.15.21.15.42.3.63.45.21.15.4.33.57.53.17.2.33.44.46.7.13.27.23.59.31.97-.28.08-.52.12-.73.13-.21.01-.37.02-.5.02h-2.03c-.4,0-.71-.08-.95-.24-.24-.16-.36-.4-.36-.72v-7.44c0-.09-.05-.14-.15-.14h-.93c-.1,0-.14.05-.14.14v7.66c0,.28-.06.48-.17.59-.11.11-.29.16-.53.16h-1.3c-.21,0-.41-.09-.6-.26-.19-.17-.29-.5-.3-.99,0-.09.02-.19.02-.3,0-.1,0-.21,0-.31,0-1.09-.25-1.88-.74-2.36-.49-.49-1.17-.73-2.03-.73s-1.54.24-2.03.73c-.49.49-.74,1.28-.74,2.36,0,.12,0,.24,0,.35,0,.11.01.22.02.32-.02.18-.08.32-.18.43-.1.11-.22.21-.36.29-.14.08-.29.17-.45.26-.16.08-.31.19-.44.32-.14.13-.25.29-.33.48-.09.19-.13.44-.13.73v2.61h1.22v-2.32c0-.27.04-.46.13-.58.09-.12.19-.22.31-.3.12-.08.25-.15.38-.21.13-.07.24-.18.34-.33.24.35.55.61.93.77.38.16.82.24,1.33.24.44,0,.84-.06,1.19-.18.35-.12.64-.32.88-.6.1.15.21.27.35.36.14.09.28.16.43.21.15.05.3.08.46.09.15.01.3.02.44.02h1.42c.76,0,1.27-.25,1.51-.74.13.25.3.43.54.55.23.12.5.18.81.18h2.28c.28,0,.6-.03.96-.09.36-.06.7-.18,1.01-.35.28.17.58.29.89.35.31.06.65.09.99.09h2.04s.03,0,.05,0c.02,0,.03,0,.06,0h1.2c.76,0,1.27-.25,1.51-.74.13.25.3.43.54.55.23.12.5.18.81.18h1.45c.61,0,1.04-.14,1.3-.43.26-.29.39-.74.39-1.36v-7.73c0-.09-.05-.14-.14-.14ZM179.43,76.52c-.25.31-.64.47-1.18.47s-.93-.16-1.18-.47c-.25-.31-.37-.81-.37-1.49,0-.62.12-1.11.37-1.46.25-.35.64-.53,1.18-.53s.93.18,1.18.53c.25.35.37.84.37,1.46,0,.68-.12,1.18-.37,1.49ZM191.31,75.96c-.17.15-.34.27-.49.36-.16-.68-.43-1.27-.8-1.76-.37-.49-.81-.88-1.3-1.15.11-.07.32-.14.65-.23.33-.09.71-.14,1.15-.14.24,0,.47.02.69.06.22.04.4.1.56.19.15.09.28.21.37.36.09.15.14.35.14.58s-.05.45-.14.66c-.09.21-.21.41-.35.58-.14.18-.3.34-.47.48ZM111.46,80.68c.31-.1.57-.24.79-.44.22-.2.39-.45.51-.77.12-.31.18-.69.18-1.14v-3.31c0-1.09-.24-1.88-.73-2.36-.48-.49-1.15-.73-2.02-.73-.39,0-.75.06-1.09.19-.34.13-.64.32-.89.58-.26.26-.46.59-.6.99-.14.4-.22.87-.22,1.41s.06.99.19,1.36c.13.37.31.67.55.89s.53.38.88.48c.34.1.73.15,1.15.15h1.55v.37c0,.26-.03.49-.1.66s-.16.31-.28.41c-.12.1-.26.17-.43.21-.16.04-.34.06-.54.06h-1.74c-.1,0-.15.05-.15.14v.82c0,.09.05.14.15.14h1.8c.38,0,.72-.05,1.03-.14ZM110.25,76.89c-.54,0-.95-.13-1.22-.38-.28-.26-.41-.72-.41-1.39,0-.63.14-1.13.42-1.51.28-.38.67-.57,1.16-.57.54,0,.93.18,1.17.53.24.35.36.84.36,1.46v1.86h-1.46ZM72.6,76.21v-7.73c0-.09-.05-.14-.15-.14h-.93c-.1,0-.15.05-.15.14v7.66c0,.28-.06.48-.17.59-.11.11-.29.16-.53.16h-1.32c-.21,0-.41-.09-.6-.26-.19-.17-.29-.5-.3-.99,0-.09.02-.19.02-.3,0-.1,0-.21,0-.31,0-1.09-.25-1.88-.74-2.36-.49-.49-1.17-.73-2.03-.73s-1.54.24-2.03.73c-.49.49-.74,1.28-.74,2.36v.29c0,.09,0,.18.01.28,0,.25-.03.45-.08.62-.05.17-.12.3-.21.4-.09.1-.18.17-.29.21-.11.04-.21.06-.32.06h-3.08c-.07,0-.14,0-.21-.03.19-.11.39-.26.59-.45.2-.18.38-.39.54-.62s.29-.49.39-.77c.1-.28.15-.57.15-.87,0-.68-.25-1.22-.74-1.62-.49-.4-1.26-.6-2.29-.6-.33,0-.64.02-.94.07-.3.05-.57.11-.82.18-.25.08-.46.16-.65.24-.19.09-.34.16-.46.23-.1.06-.14.15-.14.28v.85s.01.09.04.14c.02.04.08.09.17.15.21.15.42.3.63.45.21.15.4.33.57.53.17.2.33.44.46.7.13.27.23.59.31.97-.28.08-.52.12-.73.13-.21.01-.37.02-.5.02h-2.03c-.4,0-.71-.08-.95-.24-.24-.16-.36-.4-.36-.72v-7.44c0-.09-.05-.14-.14-.14h-.93c-.1,0-.15.05-.15.14v7.66c0,.28-.06.48-.17.59-.11.11-.29.16-.53.16h-.91s0,0,0,0,0,0,0,0h-1v-1.86c0-1.09-.24-1.88-.72-2.36-.48-.49-1.16-.73-2.02-.73-.38,0-.73.06-1.07.19-.34.13-.64.32-.89.58-.26.26-.46.59-.61.99-.15.4-.22.87-.22,1.41s.06.99.19,1.36c.13.37.31.67.55.89.24.22.53.38.88.48.34.1.73.15,1.15.15h1.55v.37c0,.26-.03.49-.1.66-.07.18-.16.31-.28.41-.12.1-.26.17-.43.21-.16.04-.34.06-.54.06h-1.74c-.1,0-.14.05-.14.14v.82c0,.09.05.14.14.14h1.8c.38,0,.72-.05,1.03-.14.31-.1.57-.24.79-.44.22-.2.39-.45.51-.77.12-.31.18-.69.18-1.14v-.34h1s0,0,0,0,0,0,0,0h1.13c.76,0,1.27-.25,1.51-.74.13.25.3.43.54.55.23.12.5.18.81.18h2.28c.28,0,.6-.03.96-.09.36-.06.7-.18,1.02-.35.28.17.58.29.89.35.31.06.64.09.99.09h2.67c.27,0,.57-.04.88-.12.32-.08.58-.27.78-.58.24.28.54.48.88.6s.75.19,1.2.19.84-.06,1.19-.18c.35-.12.64-.32.88-.6.1.15.21.27.35.36.14.09.28.16.43.21.15.05.3.08.46.09.15.01.3.02.43.02h1.44c.61,0,1.04-.14,1.3-.43.26-.29.39-.74.39-1.36ZM46.95,76.89h-1.46c-.54,0-.95-.13-1.23-.38-.28-.26-.41-.72-.41-1.39,0-.63.14-1.13.43-1.51.29-.38.67-.57,1.15-.57.54,0,.93.18,1.17.53.24.35.36.84.36,1.46v1.86ZM58.22,75.96c-.17.15-.34.27-.49.36-.16-.68-.43-1.27-.8-1.76-.37-.49-.8-.88-1.3-1.15.11-.07.32-.14.65-.23.33-.09.71-.14,1.15-.14.24,0,.47.02.69.06.22.04.4.1.56.19.15.09.28.21.37.36.09.15.14.35.14.58s-.05.45-.14.66c-.09.21-.21.41-.35.58-.14.18-.3.34-.47.48ZM66.91,76.52c-.25.31-.64.47-1.18.47s-.94-.16-1.18-.47c-.25-.31-.37-.81-.37-1.49,0-.62.12-1.11.37-1.46s.64-.53,1.18-.53.93.18,1.18.53c.25.35.37.84.37,1.46,0,.68-.12,1.18-.37,1.49ZM88.12,80.64c.1,0,.15-.05.15-.14v-1.04c0-.1-.05-.14-.15-.14h-.99c-.1,0-.14.05-.14.14v1.04c0,.09.05.14.14.14h.99ZM157.36,76.21v-7.73c0-.09-.05-.14-.15-.14h-.93c-.1,0-.15.05-.15.14v7.66c0,.28-.06.48-.17.59-.11.11-.29.16-.53.16h-1.06c-.38,0-.68-.07-.92-.21-.24-.14-.37-.36-.38-.65,0-.08,0-.15,0-.23,0-.08,0-.15,0-.23v-.85c0-.87-.23-1.51-.7-1.92-.47-.41-1.07-.61-1.81-.61h-1.29l2.61-3c.04-.08.02-.14-.06-.2l-.7-.57c-.07-.04-.13-.02-.19.04l-3.18,3.66s-.05.05-.08.09c-.03.04-.05.09-.05.13v.8c0,.1.05.14.15.14h2.33c1.1,0,1.65.48,1.65,1.43v.88c0,.25-.01.45-.04.61-.03.16-.09.29-.17.39-.09.1-.21.17-.38.21-.16.04-.38.06-.65.06h-3.99c-.4,0-.71-.08-.95-.24-.24-.16-.36-.4-.36-.72v-3.59c0-.09-.05-.14-.14-.14h-.93c-.1,0-.15.05-.15.14v3.81c0,.28-.06.48-.17.59-.11.11-.29.16-.53.16h-.99s-.03,0-.05,0c-.02,0-.03,0-.05,0h-.16c-.4,0-.71-.08-.95-.24-.24-.16-.36-.4-.36-.72v-3.59c0-.09-.05-.14-.14-.14h-.93c-.1,0-.15.05-.15.14v6.18c0,.8-.39,1.21-1.17,1.21h-.33c-.1,0-.15.05-.15.14v.82c0,.09.05.14.15.14h.39c.76,0,1.34-.2,1.74-.6.4-.4.59-.98.59-1.75v-.94c.27.3.66.45,1.16.45h.3s.03,0,.05,0c.02,0,.03,0,.05,0h1.2c.76,0,1.27-.25,1.51-.74.13.25.3.43.54.55.23.12.5.18.81.18h4.58c.45,0,.83-.06,1.12-.18.29-.12.52-.33.69-.63.11.27.29.47.56.6.27.14.56.21.88.21h1.42c.61,0,1.04-.14,1.3-.43.26-.29.39-.74.39-1.36ZM122.8,83.28c.1,0,.15-.05.15-.14v-1.04c0-.09-.05-.14-.15-.14h-.99c-.1,0-.14.05-.14.14v1.04c0,.09.05.14.14.14h.99ZM22.94,71.62h.99c.1,0,.15-.05.15-.14v-1.04c0-.09-.05-.14-.15-.14h-.99c-.1,0-.14.05-.14.14v1.04c0,.1.05.14.14.14ZM20.8,78h6.97c.63,0,1.07-.14,1.33-.43.26-.29.39-.74.39-1.36v-3.88c0-.09-.05-.14-.15-.14h-.93c-.1,0-.15.05-.15.14v3.81c0,.28-.06.48-.17.59-.11.11-.29.16-.54.16h-6.55c-.24,0-.42-.05-.53-.16-.11-.11-.17-.31-.17-.59v-2.9c0-.1-.05-.14-.14-.14h-.93c-.1,0-.15.05-.15.14v2.97c0,.62.13,1.07.39,1.36.26.29.7.43,1.3.43ZM121.03,81.96h-.99c-.1,0-.14.05-.14.14v1.04c0,.09.05.14.14.14h.99c.1,0,.15-.05.15-.14v-1.04c0-.09-.05-.14-.15-.14ZM38.27,71.94c-.86,0-1.54.24-2.03.73-.49.49-.74,1.28-.74,2.36v.29c0,.09,0,.18.01.28,0,.25-.03.45-.08.62-.05.17-.12.3-.21.4-.09.1-.18.17-.29.21-.11.04-.21.06-.32.06h-1.36c-.24,0-.42-.05-.53-.16-.11-.11-.17-.31-.17-.59v-7.66c0-.09-.05-.14-.14-.14h-.93c-.1,0-.14.05-.14.14v7.73c0,.62.13,1.07.39,1.36.26.29.7.43,1.3.43h1.48c.27,0,.57-.04.88-.12.32-.08.58-.27.78-.58.24.28.54.48.88.6s.75.19,1.2.19c.43,0,.81-.06,1.15-.18.34-.12.63-.3.87-.55.24-.25.42-.56.55-.95.13-.39.2-.85.2-1.39,0-1.09-.25-1.88-.74-2.36-.49-.49-1.17-.73-2.03-.73ZM39.45,76.52c-.25.31-.64.47-1.18.47s-.94-.16-1.18-.47c-.25-.31-.37-.81-.37-1.49,0-.62.12-1.11.37-1.46s.64-.53,1.18-.53.93.18,1.18.53c.25.35.37.84.37,1.46,0,.68-.12,1.18-.37,1.49ZM24.71,71.62h.99c.1,0,.15-.05.15-.14v-1.04c0-.09-.05-.14-.15-.14h-.99c-.1,0-.14.05-.14.14v1.04c0,.1.05.14.14.14ZM106.28,69.46h-.99c-.1,0-.15.05-.15.14v1.04c0,.1.05.14.15.14h.99c.1,0,.15-.05.15-.14v-1.04c0-.09-.05-.14-.15-.14ZM214.17,76.42c.13-.39.2-.85.2-1.39,0-1.09-.25-1.88-.74-2.36-.49-.49-1.17-.73-2.03-.73s-1.54.24-2.03.73c-.49.49-.74,1.28-.74,2.36s.25,1.86.74,2.34c.49.48,1.17.72,2.03.72.43,0,.81-.06,1.15-.18.34-.12.63-.3.87-.55.24-.25.42-.56.55-.95ZM212.78,76.52c-.25.31-.64.47-1.18.47s-.93-.16-1.18-.47c-.25-.31-.37-.81-.37-1.49,0-.62.12-1.11.37-1.46.25-.35.64-.53,1.18-.53s.94.18,1.18.53.37.84.37,1.46c0,.68-.12,1.18-.37,1.49ZM105.37,72.19h-.93c-.1,0-.15.05-.15.14v3.81c0,.28-.06.48-.17.59-.11.11-.29.16-.53.16h-3.02c-.1,0-.17,0-.22.01.41-.27.72-.62.95-1.04.23-.42.34-.87.34-1.35,0-.38-.06-.73-.17-1.04-.12-.32-.29-.59-.53-.82-.24-.23-.53-.4-.89-.53-.36-.13-.78-.19-1.28-.19s-.92.06-1.28.19c-.36.13-.65.31-.89.53-.24.23-.41.5-.53.82-.12.32-.17.67-.17,1.04,0,.48.11.93.34,1.34.23.41.54.76.94,1.03h-2.19c-.4,0-.71-.08-.95-.24-.24-.16-.36-.4-.36-.72v-3.59c0-.09-.05-.14-.15-.14h-.93c-.1,0-.15.05-.15.14v3.81c0,.28-.06.48-.17.59-.11.11-.29.16-.53.16h-.91s-.03,0-.05,0c-.02,0-.03,0-.05,0h-.17c-.4,0-.71-.08-.95-.24-.24-.16-.36-.4-.36-.72v-3.59c0-.09-.05-.14-.15-.14h-.93c-.1,0-.14.05-.14.14v3.81c0,.28-.06.48-.17.59-.11.11-.29.16-.53.16h-.99s-.03,0-.05,0c-.02,0-.03,0-.05,0h-.64c-.24,0-.42-.05-.53-.16-.11-.11-.17-.31-.17-.59v-4.82c0-.09-.05-.14-.14-.14h-.93c-.1,0-.15.05-.15.14v.61h-1.42c-.36,0-.7.05-1.04.15-.33.1-.63.26-.88.48-.25.22-.45.51-.61.87-.15.36-.23.81-.23,1.34,0,.44.07.83.2,1.16.14.33.32.6.56.81.24.21.52.37.84.48.32.1.67.16,1.05.16.32,0,.61-.04.88-.13.27-.09.5-.21.7-.38.09.41.26.7.53.87.27.18.64.26,1.11.26h.86s.03,0,.05,0c.02,0,.03,0,.05,0h1.2c.76,0,1.27-.25,1.51-.74.13.25.3.43.54.55.23.12.5.18.81.18h.32s.03,0,.05,0c.02,0,.03,0,.05,0h1.13c.76,0,1.27-.25,1.51-.74.13.25.3.43.54.55.23.12.5.18.81.18h1.96c.28,0,.6-.01.96-.04.36-.03.7-.13,1.02-.3.28.17.58.27.88.3.31.03.64.04.99.04h3.15c.61,0,1.04-.14,1.3-.43.26-.29.39-.74.39-1.36v-3.88c0-.09-.05-.14-.15-.14ZM83.74,74.46c0,.57-.11,1.01-.34,1.33-.23.32-.62.48-1.17.48-.46,0-.82-.13-1.07-.38-.25-.25-.38-.62-.38-1.11,0-.65.14-1.11.43-1.36.29-.25.65-.38,1.11-.38h1.42v1.42ZM98.79,76.65c-.44-.17-.82-.43-1.13-.77-.31-.35-.46-.77-.46-1.29s.15-.89.45-1.15c.3-.26.68-.4,1.15-.4s.85.13,1.15.4c.3.27.45.65.45,1.15s-.15.94-.46,1.29c-.31.35-.69.6-1.13.77Z"/>
  <path class="st0" d="M36.58,6.37c0,.84-.67,1.51-1.49,1.51h-4.77s0,0,0,0h-3.27v11.36c-.01.83-.68,1.51-1.5,1.51h0c-.82,0-1.49-.68-1.49-1.51V7.88s-3.47,0-3.47,0c-.82,0-1.49-.68-1.49-1.51s.67-1.51,1.49-1.51h5.94s0,0,0,0h8.57c.82,0,1.49.68,1.49,1.51ZM179.11,4.86h10.28v8.57h-10.28V4.86ZM84.7,16.53h32.03v-1.19h-32.03v1.19ZM84.7,39.66h32.03v-1.19h-32.03v1.19ZM84.7,21.61h32.03v-1.19h-32.03v1.19ZM84.7,44.74h32.03v-1.19h-32.03v1.19ZM84.7,19.07h32.03v-1.19h-32.03v1.19ZM84.7,42.2h32.03v-1.19h-32.03v1.19ZM84.7,24.16h32.03v-1.19h-32.03v1.19ZM84.7,47.29h32.03v-1.19h-32.03v1.19ZM218.86,56.52h1.52v-18.3h-1.52v18.3ZM218.86,35.85h1.52v-13.22h-1.52v13.22ZM218.86,7.63h-6.94v1.52h6.94v11.83h1.52v-11.83h6.99v-1.52h-8.51ZM229.58,7.63v1.52h10.42v-1.52h-10.42ZM203.74,9.16h6.18v-1.52h-6.18v1.52ZM199.25,9.16h3.29v-1.52h-3.29v1.52Z"/>
  <path class="st1" d="M34.14,54.4c0,.84-.67,1.51-1.49,1.51h-12.06c-.82,0-1.49-.68-1.49-1.51s.67-1.51,1.49-1.51h3.49v-26c0-.84.67-1.51,1.49-1.51s1.49.68,1.49,1.51v26h5.6c.82,0,1.49.68,1.49,1.51ZM142.33,5.39h-10.27v50.43h35.8v-8.57h-25.53V5.39ZM179.12,55.83h10.27V18.57h-10.27v37.25ZM56.02,7.33s0,0,0,0c-3.39-1.64-7.02-2.47-10.8-2.47h-3.42c-.82,0-1.49.68-1.49,1.51s.67,1.51,1.49,1.51h3.42c3.33,0,6.54.73,9.52,2.18,0,0,0,0,0,0,7.68,3.72,12.64,11.7,12.64,20.33,0,1.27-.1,2.53-.31,3.77-.14.82.41,1.6,1.22,1.74.08.01.17.02.25.02.71,0,1.34-.52,1.47-1.26.23-1.4.35-2.84.35-4.27,0-4.92-1.38-9.69-3.99-13.81-2.54-4.01-6.12-7.21-10.35-9.25ZM65.82,42.3c-.69-.46-1.61-.26-2.06.43-4.12,6.36-11.05,10.16-18.54,10.16h-6.5c-.82,0-1.49.68-1.49,1.51s.67,1.51,1.49,1.51h6.5c8.49,0,16.35-4.31,21.03-11.52.45-.7.26-1.64-.43-2.09ZM32.01,34.67c-.82,0-1.49.68-1.49,1.51v10.69c0,1.37,1.1,2.49,2.45,2.49h5.74c.82,0,1.49-.68,1.49-1.51s-.67-1.51-1.49-1.51h-5.22v-10.15c0-.83-.67-1.51-1.49-1.51ZM32.01,29.79c.82,0,1.49-.68,1.49-1.51v-13.84h11.72c2.5,0,4.89.58,7.1,1.72.73.38,1.63.08,2-.66.37-.74.08-1.65-.65-2.03-2.63-1.36-5.48-2.05-8.45-2.05h-12.24c-1.35,0-2.45,1.12-2.45,2.49v14.37c0,.84.67,1.51,1.49,1.51ZM45.22,46.34c-.82,0-1.49.68-1.49,1.51s.67,1.51,1.49,1.51c10.3,0,18.69-8.51,18.69-18.97,0-3.1-.75-6.17-2.17-8.88-.39-.74-1.29-1.02-2.01-.63-.73.39-1,1.31-.62,2.04,1.19,2.28,1.82,4.86,1.82,7.47,0,8.8-7.05,15.95-15.71,15.95ZM45.22,18.22h-6.5c-.82,0-1.49.68-1.49,1.51s.67,1.51,1.49,1.51h6.5c2.47,0,4.77.99,6.48,2.79,1.71,1.8,2.61,4.17,2.52,6.68-.17,4.86-4.32,8.81-9.25,8.81h-4.76v-7.95c0-.84-.67-1.51-1.49-1.51s-1.49.68-1.49,1.51v8.48c0,1.37,1.1,2.49,2.45,2.49h5.28c3.15,0,6.14-1.2,8.44-3.37,2.33-2.21,3.67-5.17,3.78-8.35.12-3.34-1.07-6.49-3.35-8.89-2.28-2.4-5.34-3.72-8.62-3.72ZM87.69,11.57c.76-.25,1.8-.28,14.84-.36,15.43-.09,14.39-.01,15.3-1,.83-.89,1.11-1.92.82-2.95-.28-.91-.86-1.64-1.62-2.06l-.62-.33h-13.5c-7.42-.03-14.01.01-14.61.09-2.26.27-4.91,1.25-6.78,2.53-1.05.72-2.82,2.47-3.49,3.47-1.35,1.98-2.11,4.2-2.36,6.99-.49,5.02,1.04,9.51,4.23,12.43.46.42.83.81.83.85s-.37.43-.83.86c-3.06,2.88-4.6,7.16-4.3,11.82.27,4.01,1.45,6.83,3.93,9.33,2,2.01,4.11,3.25,6.96,4.06,1.13.33,1.26.33,15.46.37,10.77.03,14.42,0,14.76-.13.61-.25,1.38-.98,1.75-1.7.88-1.68-.27-3.95-2.21-4.4-.33-.09-6.44-.15-13.93-.15-14.81,0-14.13.04-16.23-.98-1.96-.97-3.34-2.73-3.89-4.98-.12-.45-.21-1.52-.21-2.39,0-4.1,1.74-6.65,5.42-7.96l1.26-.46,14.05-.07,14.04-.07.64-.45c1.96-1.39,1.75-4.37-.39-5.56-.4-.22-1.78-.27-14.54-.33-15.56-.09-14.64-.04-16.65-1.06-1.1-.55-2.36-1.83-2.91-2.91-1.2-2.4-1.26-6.05-.12-8.5.85-1.82,2.61-3.26,4.91-4.03ZM221.36,47.37h1.52v-27.96h-1.52v27.96ZM221.36,56.52h1.52v-6.57h-1.52v6.57ZM222.88,10.18h-1.52v7.29h1.52v-5.42h17.11v-1.86h-17.11ZM216.36,41.78h1.52v-16.01h-1.52v16.01ZM216.36,56.52h1.52v-11.61h-1.52v11.61ZM217.88,23.82v-13.64h-18.64v1.86h17.11v11.78h1.52ZM205.46,5.03h-6.22v1.59h6.22v-1.59ZM206.83,6.62h14.34v-1.59h-14.34v1.59ZM232.56,5.03h-9.15v1.59h9.15v-1.59ZM240,5.03h-5.47v1.59h5.47v-1.59Z"/>
</svg>