<?xml version="1.0" encoding="UTF-8"?>
<svg id="Layer_1" xmlns="http://www.w3.org/2000/svg" version="1.1" viewBox="0 0 260 100">
  <!-- Generator: Adobe Illustrator 29.1.0, SVG Export Plug-In . SVG Version: 2.1.0 Build 142)  -->
  <defs>
    <style>
      .st0 {
        fill: #c29742;
      }

      .st1 {
        fill: #fff;
      }

      .st2 {
        fill: #c19642;
      }

      .st3 {
        fill: #dcdbde;
      }

      .st4 {
        fill: #127178;
      }

      .st5 {
        fill: #005773;
      }
    </style>
  </defs>
  <path class="st0" d="M97.19,49.48c0,25.38-20.57,45.94-45.96,45.94S5.29,74.87,5.29,49.48,25.86,3.53,51.23,3.53s45.96,20.58,45.96,45.95"/>
  <path class="st3" d="M84.95,26.91c2.33,4.72,3.65,9.89,3.81,15.23.61,20.88-15.88,38.36-36.76,38.97-20.88.61-38.36-15.87-38.97-36.75-.18-6.11,1.12-12.07,3.69-17.44-4.24,6.43-6.71,14.13-6.71,22.42,0,22.54,18.28,40.83,40.83,40.83s40.82-18.29,40.82-40.83c0-8.28-2.47-15.98-6.71-22.42ZM20.03,22.55c-4.27,6.37-6.5,13.96-6.28,21.78.6,20.48,17.74,36.66,38.23,36.06,20.48-.6,36.65-17.75,36.06-38.23-.21-7.29-2.65-14.27-6.89-20.17-7.47-8.28-18.28-13.48-30.31-13.48s-23.32,5.45-30.81,14.05Z"/>
  <path class="st4" d="M86.01,42.07h.04c.47,0,.91.2,1.32.6.14.18.2.34.2.49v.1c0,.27-.19.44-.58.51-.91.03-1.37-.09-1.41-.34v-.04c0-.32.19-.62.6-.91h.01c-.22-.02-.33-.07-.33-.16v-.06c0-.12.05-.18.15-.18M86.61,42.59c-.16.07-.33.19-.48.34-.16.15-.24.32-.24.49.16.05.54.07,1.11.04h.02c.16-.02.23-.07.23-.17v-.04c.01-.17-.15-.36-.47-.58-.09-.05-.15-.08-.17-.08M79.49,49.61c0,15.84-12.85,28.67-28.67,28.67s-28.68-12.83-28.68-28.67,12.83-28.67,28.68-28.67,28.67,12.84,28.67,28.67M80.32,41.44c.1,0,.19.16.27.47.08.31.17.78.28,1.4v.12s0,.06,0,.06c0,.22-.05.33-.15.33h-.02c-.12,0-.19-.1-.2-.31-.01-.2-.12-.83-.33-1.88v-.02c0-.09.05-.14.15-.16M81.35,41.4s.13.08.23.23c.11.15.23.23.36.25.13-.02.19-.1.19-.23s.03-.18.12-.18h.03c.06,0,.11.08.15.23.05.15.11.24.2.26.08.02.14-.02.18-.1.03-.09.05-.18.04-.26,0-.09.03-.14.1-.15.07-.01.12.03.14.12.02.09.01.23-.03.4-.04.18-.15.27-.32.28-.17.01-.31-.06-.41-.24h-.01c-.1.2-.24.27-.43.2.12.28.23.67.33,1.16l.05.29c0,.08-.05.13-.15.15h-.02c-.09,0-.15-.07-.16-.2-.14-.66-.26-1.09-.37-1.31-.1-.22-.22-.44-.35-.67v-.05s0-.02,0-.02c0-.09.06-.14.17-.16M84.08,41.42c.34,0,.6.24.79.73.12,0,.18.05.18.15v.04s-.02.07-.07.12c.04.36.17.72.37,1.06l.02.13c0,.08-.06.14-.18.17-.14,0-.28-.21-.42-.63l-.16-.63c-.13.03-.25.04-.37.04h-.15c-.31,0-.51-.12-.62-.35l-.02-.14c0-.25.13-.46.4-.63.08-.03.15-.04.23-.05M83.81,42.05c0,.1.12.16.36.16h.05l.28-.02h0c-.12-.29-.26-.43-.4-.43s-.24.09-.29.28v.02ZM19.96,41.12c-.03.32-.26.85-.7,1.57-.44.72-.66,1.15-.67,1.26l-.35-.04c.01-.14.23-.55.67-1.22.43-.67.66-1.1.67-1.28-.28,0-.68.02-1.23.05l.05-.34h1.56ZM21.69,41.12l-.05.32c-.26-.04-.57-.05-.93-.05-.03.1-.07.35-.12.73.73,0,1.1.24,1.1.71,0,.36-.16.64-.48.85-.32.21-.68.33-1.08.34l-.03-.25c.32-.03.61-.11.85-.25.24-.14.37-.34.37-.6,0-.2-.08-.33-.24-.41-.15-.08-.43-.11-.83-.11.07-.29.15-.72.25-1.28h1.19ZM15.63,43.2h-.35c.04-.27.08-.56.11-.85.03-.32.05-.56.06-.72l-.45.22-.07-.17.72-.52h.19c-.06.42-.1.82-.14,1.18-.03.28-.05.56-.07.85M17.6,42.1c0-.24-.04-.41-.13-.53-.08-.12-.19-.18-.31-.18-.16,0-.28.06-.37.19-.09.13-.14.27-.14.43,0,.15.04.28.12.38s.2.16.36.16c.18,0,.34-.08.45-.23,0-.07.01-.15.01-.22M17.94,42.05c0,.53-.13.98-.39,1.34-.26.36-.64.56-1.15.6l-.03-.24c.67-.05,1.06-.46,1.19-1.22h-.02c-.14.18-.35.27-.61.27-.2,0-.35-.07-.46-.21-.11-.14-.16-.31-.16-.51,0-.27.09-.49.25-.68.17-.19.39-.28.66-.28.2,0,.37.08.51.24.14.16.21.39.21.69"/>
  <path class="st5" d="M70.46,19.47c-.12-.08-.28-.13-.46-.17-.13-.02-.23-.04-.3-.05-.2-.03-.4-.05-.59-.03-.34.03-.65.13-.93.31-.13.09-.24.16-.3.21-.22-.12-.35-.19-.53-.28-.21-.11-.33-.18-.56-.29.03-.03.13-.08.3-.16.16-.07.26-.14.3-.22.07-.14.05-.33-.07-.58-.14-.31-.4-.56-.77-.74-.22-.1-.47-.17-.75-.2-.22-.02-.35-.02-.37,0-.08.04-.22.13-.42.26-.23.15-.35.24-.36.26.15.03.27.07.36.11.18.08.32.19.43.35.08.12.14.23.16.33-.58-.26-.9-.4-1.45-.62,0,0,0,0,0,0-.54-.22-.82-.32-1.37-.52,0,0,0,0,0,0-.02,0-.04-.02-.07-.03-.3-.11-.49-.23-.55-.36-.03-.07,0-.48.08-1.22.08-.75.1-1.19.05-1.32-.43.3-.72.5-.87.6-.01.03,0,.08,0,.15.02.07.02.12,0,.15-.11.04-.36.08-.77.13-.41.04-.68.1-.82.15-.16.06-.36.25-.6.55-.2.26-.31.45-.35.55.27.06.81.28,1.59.67.02,0,.04.01.06.02.13.04.27-.02.43-.16.2-.19.34-.29.41-.29.02.38.02.58.03.6.05.22.18.37.41.45.27.09.43.15.65.22,0,0,0,0,0,0,.08.03.15.05.22.08,0,0,.01,0,.02,0,0,0,0,0,0,0,.34.12.6.22.95.36h0c.65.26.97.4,1.61.69.23-.11.39-.2.49-.26.05.25.07.42.09.53.44.21.67.33,1.1.56,0,0,0,0,0,0,.09.05.18.1.3.16.11.06.26.03.46-.09.2-.12.32-.16.36-.14.48.5.72.76,1.17,1.28.03.02.19-.03.48-.14.29-.11.46-.18.49-.22.08-.13.15-.31.2-.53.05-.26.08-.45.11-.58.03-.15.07-.28.08-.35,0-.06-.05-.14-.15-.2ZM61.4,16.63c-.06-.02-.21-.08-.46-.17-.28-.11-.46-.18-.55-.23.05-.05.13-.08.25-.09.23-.02.43-.09.62-.2.1-.06.15-.08.17-.08,0,.48-.01.74-.03.77ZM69.52,20.36c-.22-.26-.33-.39-.55-.65.22,0,.4.05.54.13.1.06.1.23.01.52ZM34.06,21.46c-.05.16-.09.24-.11.25-.05.03-.18.05-.39.06-.19,0-.33,0-.4,0-.08.32-.14.57-.18.75.06.02.2.01.42-.01.2-.02.34-.04.43-.07.05-.18.1-.35.15-.5.51-.01.79-.02.84-.05.06-.04.13-.28.21-.75-.34,0-.52,0-.87.02,0,.02-.05.12-.11.3ZM37.47,17.71c-.12-.31-.36-.63-.71-.94-.43-.38-.83-.49-1.18-.34-.37.16-.67.51-.87,1.02-.18.46-.22.79-.12.99.08.15.24.22.5.22.22,0,.43-.05.64-.14.29-.14.5-.3.62-.49.04-.1.09-.21.13-.31.07,0,.17.08.28.21.1.11.16.21.2.29-1,.42-1.52.67-2.45,1.15-.04.02-.08.04-.11.06,0,0,0,0,0,0h0s-.04.02-.07.04c-.13.06-.25.09-.39.07-.13-.02-.22-.08-.25-.18-.12-.38-.26-.69-.41-.93-.02.04-.08.2-.16.47-.08.26-.15.45-.14.49.04.26.28.57.28.67-.59.34-.91.53-1.44.87,0,0,0,0,0,0-.13.08-.19.12-.32.21-.01-.16-.04-.26-.06-.3-.13-.19-.35-.3-.67-.31-.31-.01-.57.06-.78.2-.21.15-.46.41-.74.81-.22.31-.41.62-.57.92-.16.32-.24.48-.4.8-.13.27-.24.44-.32.52-.09.08-.18.12-.27.13-.09,0-.16-.03-.2-.12-.01-.04-.05-.13-.11-.28-.05-.11-.09-.2-.13-.24-.05-.06-.12-.1-.2-.13-.1.53-.16.85-.14.88.09.22.31.45.21.54-.17.16-.28.25-.42.39,0,0,0,0,0,0-.45.42-.67.64-1.1,1.09h0c-.33.33-.54.57-.86.92-.02.02-.04.05-.07.07,0,0-.01.01-.02.02h0s-.02.02-.03.04c-.13.18-.44.12-.84-.18-.25-.18-.51-.41-.76-.6-.73-.53-1.19-.76-1.23-.71.04.5.09.89.15,1.19,1.82,1.09,2.7,1.67,2.7,1.65-.04.16-.13.36-.27.6-.12.22-.24.41-.36.56-.44.56-.81.89-1.14.95-.17.03-.37-.03-.58-.19-.16-.11-.26-.28-.32-.48-.02-.12-.04-.23-.06-.35-.08-.05-.11-.07-.19-.11-.03.24.02.56.15.96.16.51.4.87.7,1.07.25.17.57.14.96-.07.34-.18.63-.44.88-.77.35-.46.57-.89.66-1.29.09-.41.07-.84-.07-1.3,0-.02.17-.21.5-.57,0,0,0,0,0,0,.3-.33.51-.55.86-.91h0c.35-.35.57-.57.96-.94h0c.08-.07.15-.14.25-.24-.03-.2-.05-.36-.09-.48.33.07.55.05.68-.06,1.57-1.38,2.4-2.01,4.1-3.1.45-.29.72-.46,1.22-.75.02-.27.04-.5.06-.68.28.27.59.31.93.13.21-.11.32-.17.53-.28h0c1.01-.53,1.59-.8,2.7-1.25.03-.07,0-.29-.07-.65-.06-.27-.11-.45-.14-.55ZM35.73,17.63c-.07.03-.13.05-.19.07-.2.01-.34,0-.43-.01.04-.17.13-.29.25-.36.15-.08.38-.05.68.11-.11.08-.21.15-.32.19ZM28.78,23.14c.15-.27.27-.47.34-.61.19-.33.39-.57.58-.71.38-.28.76-.35,1.12-.21-.84.58-1.25.88-2.05,1.53ZM34.4,17.01s.14-.14.29-.36c.15-.22.22-.34.2-.38,0-.01-.16-.05-.45-.09-.3-.04-.45-.06-.47-.05-.04.02-.13.15-.26.4-.13.24-.18.38-.17.41,0,.02.15.04.41.06.26.02.41.03.45,0ZM40.73,15.72c-.35.19-.52.29-.53.3.04.02.18.02.42-.03.19-.03.32-.06.4-.08.45-.13.75-.33.93-.61.12-.2.17-.38.13-.54-.03-.14-.19-.18-.46-.12-.33.08-.55.1-.64.05.08-.11.67-.25.94-.51.14-.13.19-.49.21-.62-.34.08-.74.33-1.18.75-.45.43-.64.75-.59.94.03.14.17.2.42.16.25-.04.44-.06.56-.09-.05.08-.25.21-.6.39ZM55.02,12.71c-.01-.1-.02-.15-.02-.17-.07,0-.23.12-.47.38-.17.2-.25.3-.42.5.12.1.22.18.32.25.04.34.06.5.1.84.06.51.08.84.06.99,0,.06-.02.1-.03.1-.42-.04-.63-.06-1.05-.09h0c-.43-.03-.72-.05-1.15-.07,0,0,0,0,0,0-.09,0-.14,0-.23,0-.09,0-.22-.11-.39-.31-.15-.18-.25-.33-.3-.45-.02-.06-.04-.12-.04-.18,0-.12-.01-.19-.03-.21-.04-.04-.13-.06-.28-.06-.2,0-.45.06-.76.19-.33.14-.57.3-.72.47-.09.12-.18.26-.25.44-.04.09-.1.13-.17.14-.34.02-.54.03-.84.05,0,0,0,0,0,0-.04,0-.07,0-.11,0-.02,0-.03,0-.05,0h0c-.41.03-.7.06-1.11.1,0,0,0,0,0,0-.02,0-.04,0-.06,0-.04,0-.07,0-.11.01h0s-.04,0-.07,0c-.13.02-.21-.05-.23-.2-.02-.12-.12-.61-.34-1.47-.23-.91-.38-1.36-.43-1.35-.3.39-.53.72-.7.99.31.86.47,1.29.76,2.15-.4.06-.62.09-.99.15,0,0-.02,0-.03,0-.02,0-.03,0-.05,0,0,0,0,0,0,0-.02,0-.04,0-.06.01-.2.03-.39-.2-.52-.68-.08-.3-.14-.63-.23-.93-.24-.87-.46-1.34-.51-1.33-.24.41-.42.74-.55,1.01.33.84.49,1.27.81,2.11-1.55.32-2.33.52-3.84,1.01-.18.06-.35.04-.52-.05-.15-.08-.26-.21-.31-.36-.02-.07-.04-.16-.05-.29,0-.13-.02-.22-.04-.27,0-.02,0-.02-.01-.04,0-.01-.02-.02-.02-.03-.09.13-.13.34-.13.63,0,.28.03.49.08.65.09.27.27.45.51.56.26.12.54.13.86.02,1.3-.41,1.96-.59,3.29-.87.1-.26.15-.39.25-.66.04.18.05.27.09.45.02.09.07.12.16.1.36-.07.58-.11.89-.17,0,0,0,0,0,0,.03,0,.06,0,.08-.01.04,0,.08-.01.12-.02,0,0,0,0,0,0,.16-.03.29-.05.48-.08.15-.33.25-.54.28-.64.03.17.05.25.08.42.02.11.1.16.21.14.37-.05.56-.07.93-.11,0,0,0,0,0,0,.43-.05.72-.07,1.2-.11.14,0,.24-.02.4-.03.17,0,.28-.05.35-.13.03-.03.06-.11.09-.21.03-.09.07-.15.12-.18.79.32,1.17.5,1.92.86.08-.02.14-.09.2-.22.05-.12.1-.18.15-.18.23,0,.37,0,.57.02,0,0,0,0,0,0,.56.02.85.04,1.41.08,0,0,0,0,0,0,.34.03.57.05.95.09.02,0,.04,0,.06,0,.05,0,.11,0,.17,0,.08-.01.13-.05.15-.1.08-.18.14-.32.19-.41.1-.24.16-.42.18-.55,0-.66,0-1.04.02-1.13.36-.28.54-.41.92-.68-.11-.02-.46-.24-1.07-.66-.08-.05-.12-.14-.14-.27ZM50.83,15.4s-.18-.04-.45-.16c-.13-.06-.23-.11-.28-.13.09-.07.26-.1.52-.11.08,0,.14.06.18.17.03.09.05.2.03.23ZM57.17,13.68c-.29.27-.43.44-.44.49,0,1.08,0,1.63,0,2.71.43-.32.71-.74.81-1.29.08-.47.13-.99.14-1.57,0-.17,0-.43-.02-.78-.06.04-.23.19-.49.44ZM60.05,14.25c.18-.08.36-.15.53-.21.02.02.15.12.38.3.24.18.36.27.38.28.06.02.32-.09.79-.32-.31-.25-.46-.38-.78-.62-.04,0-.15.04-.33.11-.17.06-.27.09-.3.08-.07-.02-.19-.1-.38-.24-.17-.14-.28-.23-.33-.3-.33.16-.58.28-.76.36.05.05.16.14.33.27.2.15.36.25.47.3ZM77.2,29.54c-.08-.33-.12-.5-.13-.5-.03-.03-.19-.09-.49-.15-.3-.06-.46-.08-.48-.06-.04.03.06.38.27,1.06.02.03.2.07.53.13.29.05.45.08.47.07,0,0,0,0,0,0-.02-.03-.07-.21-.15-.54ZM79.59,28.98c-.08-.2-.16-.49-.26-.85-.1-.34-.18-.58-.24-.73-.11-.25-.26-.48-.44-.7-.14-.17-.37-.29-.67-.36-.21-.05-.46-.07-.74-.06-.24,0-.35.02-.34.03.37.19.62.37.76.53.08.09.19.32.34.7.12.33.19.52.2.59-.2-.1-.44-.31-.72-.64-.51-.59-.77-.87-1.31-1.43h0c-.31-.32-.53-.55-.86-.86,0,0,0,0,0,0-.45-.43-.67-.64-1.13-1.04,0,0,0,0,0,0-.38-.33-.61-.53-1.04-.88,0,0,0,0,0,0-.35-.28-.59-.47-.95-.74h0c-.07-.05-.1-.08-.17-.13-.22-.17-.34-.27-.35-.31.49-.9.97-1.79,1.44-2.67-.63.09-.96.16-1.01.18-1.03,1.87-1.56,2.81-1.54,2.86.44.31.65.46,1.08.79.39.3.63.49,1.05.83,0,0,0,0,0,0,.33.27.56.47.88.75h0c.45.4.67.6,1.1,1.02h0c.31.3.53.52.84.83h0c.46.47.69.72,1.13,1.22.13.15.39.32.8.54.4.22.68.42.82.59.1.13.35.46.72,1.01.16.23.26.39.32.49.47.06.81.13,1.04.17-.2-.33-.43-.9-.72-1.72ZM79.26,30.52c.09.13.1.13.02,0,0,0-.01,0-.02,0ZM19.25,72.85l3.36-3,.56.63-1.49,1.33h0c.35-.13.79-.23,1.16-.31l1.02-.24.63.71-2.18.46-1.15,2.58-.63-.71.8-1.77-.56.1-.97.86-.56-.63ZM21.62,75.44l3.17-3.2.6.59-3.17,3.2-.6-.59ZM27.4,74.64l.64.55-2.94,3.41-.67-.57.55-1.64c.18-.55.4-1.08.72-1.75h-.01c-.22.29-.49.66-.77,1.02-.28.36-.56.71-.79.98l-.55.64-.64-.55,2.95-3.41.66.57-.58,1.66c-.18.54-.39,1.06-.72,1.75h.01c.24-.32.51-.67.77-1.02.26-.34.53-.68.8-.99l.57-.67ZM27.38,77.09c.7-.91,1.27-1.56,2.36-.77.58.42.88.86.58,1.61-.07.17-.18.32-.28.47l-.68-.49c.25-.38.44-.69-.01-1.04-.54-.39-.95.29-1.15.57l-.72,1.02c-.22.3-.55.81-.08,1.15.39.28.81-.05,1.19-.61l-.48-.34.39-.54,1.14.81-1.41,1.97-.51-.37.3-.42h0c-.41.28-.75.2-1.01.04-1.12-.8-.69-1.57,0-2.55l.37-.52ZM33.37,83.81l1.83-4.11,2.18.97-.27.6-1.41-.63-.46,1.04,1.32.59-.27.61-1.33-.6-.83,1.87-.77-.35ZM35.74,84.87l2.53-3.88,1.07.38-.56,4.58-.85-.3.18-1.15-.93-.33-.6.99-.85-.3ZM37.53,83.6l.68.24.22-1.28c.03-.21.08-.41.13-.62.03-.1.05-.2.07-.3h-.01c-.04.08-.09.18-.13.27-.1.19-.18.38-.29.56l-.67,1.12ZM39.4,86.12l1.25-4.33.81.23-1.24,4.33-.81-.23ZM43.51,83.93c.09-.39.14-.79-.31-.88-.28-.06-.48.01-.54.31-.08.33.11.51.33.73.23.23.66.67.84.94.22.33.25.62.17,1-.18.83-.83,1.15-1.63.97-.99-.22-1.22-.84-1.05-1.63l.07-.32.82.18-.06.26c-.11.42-.05.76.36.85.35.07.55-.07.62-.4.06-.26-.02-.46-.2-.65-.36-.43-.84-.79-1.08-1.3-.09-.23-.11-.49-.06-.72.17-.75.68-1.07,1.55-.88,1.3.28,1.05,1.29.96,1.72l-.79-.17ZM44.31,87.3l1.65-4.32,1.12.15.43,4.6-.89-.12-.07-1.16-.98-.13-.37,1.1-.89-.12ZM45.78,85.68l.71.09-.06-1.3c-.01-.21,0-.42,0-.63,0-.1,0-.2,0-.3h-.01c-.03.09-.05.19-.07.29-.05.21-.09.41-.16.61l-.42,1.23ZM48.19,87.76l.22-4.5.84.04-.19,3.84,1.56.08-.03.66-2.4-.12ZM57.53,82.87l.83-.12.46,3.11c.15.99-.1,1.5-1.19,1.66-1.1.16-1.49-.26-1.64-1.24l-.46-3.11.83-.13.45,3.04c.06.43.15.85.72.77.54-.08.51-.51.45-.94l-.45-3.03ZM60.94,82.14l.81-.2,1.08,4.37-.85.21-1.02-1.4c-.34-.47-.65-.95-1.01-1.59h-.01c.12.35.26.79.39,1.23.13.43.26.87.34,1.22l.2.82-.82.2-1.07-4.37.84-.21,1.03,1.44c.34.46.64.93,1.01,1.6h.01c-.13-.39-.26-.82-.39-1.23-.13-.41-.24-.83-.34-1.22l-.21-.85ZM63.79,86.01l-1.37-4.29.8-.26,1.38,4.29-.8.25ZM65.67,80.55l.84-.33.74,4.55-1.05.41-2.57-3.83.84-.33,1.54,2.49c.14.22.26.44.38.68.06.11.12.22.17.33h.01c-.05-.12-.07-.25-.1-.36-.07-.25-.14-.5-.18-.75l-.61-2.87ZM68.8,84.11l-1.98-4.05,2.13-1.04.29.6-1.37.67.5,1.02,1.26-.62.29.6-1.26.62.61,1.24,1.36-.67.29.6-2.13,1.04ZM71.42,80.56l1,1.66-.72.44-2.32-3.87,1.37-.82c.62-.37,1.23-.44,1.65.27.25.42.41.93-.03,1.29h0c.46-.19.75,0,.98.37.1.16.65,1.12.89,1.13l.04.07-.79.48c-.24-.19-.51-.67-.66-.93-.15-.23-.34-.56-.63-.49-.23.06-.44.19-.64.31l-.13.08ZM71.08,80l.57-.34c.23-.16.32-.42.09-.81-.26-.43-.48-.4-.76-.24l-.54.32.64,1.07ZM74.58,77.05c-.23-.33-.5-.63-.87-.36-.23.16-.31.37-.13.61.21.28.45.26.77.24.32-.02.93-.05,1.26,0,.4.06.63.23.86.54.51.69.31,1.38-.35,1.86-.82.6-1.44.35-1.92-.3l-.19-.27.68-.49.15.21c.24.37.54.55.87.3.28-.21.31-.46.11-.73-.15-.21-.36-.28-.62-.28-.55-.02-1.14.11-1.68-.06-.23-.08-.44-.24-.58-.43-.45-.62-.35-1.22.37-1.74,1.08-.79,1.66.07,1.92.42l-.65.48ZM77.84,78.48l-2.88-3.46.65-.54,2.88,3.47-.65.53ZM75.93,74.23l2.05-1.91.45.48-.71.67,2.62,2.81-.61.57-2.63-2.81-.72.68-.46-.49ZM79.81,72.08c.23.08.44.18.64.32h0c-.22-.29-.33-.54-.44-.79l-.48-.99.62-.68,1.11,2.62,1.41,1.29-.56.63-1.42-1.29-2.7-.88.62-.68,1.19.45Z"/>
  <path class="st0" d="M37.03,27.71l-.55.54-4.73,1.39,2.34,2.84s-.35.33-.59.37c-.24.05-.36.34-.42.49-.07.15-.19.53-.46.6-.27.08-1.13.23-1.13.23,0,0-.39.08-.44.18-.05.1-.36.59-.45.74-.09.16-.43.41-.54.5-.11.09-.68.53-.68.53l-2.74-.31s.02.34-.06.63c-.09.29-.27.67-.24.89.02.22-.05.82-.1.99-.06.17-.3.63-.3.63,0,0-.19.22.09.24.28.02.59.08.76.08.17,0,.56.17.65.31.09.14.72,1.28.84,1.44.11.16.42.42.49.51.06.1.05.22.08.37.03.15.43.69.5.77.07.09.2.41.31.49.1.07.27.22.33.32.06.1.23.7.32.84.09.13.22.29.33.4.12.1.45.18.36.32-.09.14-.23.24-.15.36.08.12.26.23.44.35.18.12.4.48.51.71.12.22.38.45.44.67.06.22.1.55.08.67-.02.11-.08.21-.09.36,0,.14-.03.27.13.4.16.13.42.41.4.58-.02.17,0,.27.12.37.11.1.27.13.41.13.14,0,.23.1.31.15.08.06.16.05.4.17.24.12.89.52.94.6.05.08.39.53.42.69.04.16.06.33.15.37.1.04.21.08.23.24.02.16.12.61.23.78.11.18.07.33.15.48.09.15.48.6.55.97.07.36.1.66.02.91-.08.26-.14.59-.15.67-.02.08-.12.16.05.37.17.21.22.33.25.45.03.12.28.55.15.71-.13.16-.19.26-.09.45.1.19.51.98.66,1.16.15.18.65.9.72,1,.07.1.33.32.53.37.2.05.48.07.62.19.13.12.36.29.49.36.12.07.41.27.41.27,0,0,.03.33.13.4.1.07.3-.06.4.11.1.18.06.34.26.44.2.1.23.28.22.39,0,.11-.02.25.12.3.13.04.11.15.13.33.02.18.17.19.24.32.08.13.02.23.03.35,0,.12.05.43.1.59.06.16.24.28.35.33.11.05.22.48.3.64.08.16.48.84.69,1.08.22.24.45.46.69.62.24.15.6.34.64.56.04.22.06.53.19.71.13.18.27.4.35.53.07.13.32.32.36.48.04.15.08.28.12.37s.12.53.12.53l.4-.06s.03-.16.13-.19c.1-.03.21-.07.28-.12.07-.04,0-.26.1-.27.09,0,.29.08.27-.09-.02-.17,0-.27-.13-.36-.13-.09-.28-.28-.2-.33.08-.06.27-.06.2-.26-.07-.2-.15-.26-.08-.35.07-.09.14-.12.23-.21.09-.08.1-.19.03-.28-.07-.09-.05-.24.06-.32.11-.08.27-.13.4-.07.13.07.15.01.29.18.15.17.29.26.47.28.18.02.23.07.38.01.14-.06.12-.15.33-.15.21,0,2.54,0,2.54,0,0,0,.28.04.42.12.14.08.32.23.67.22.35-.01,1.3.08,1.52.09.22,0,.7,0,.91-.04.21-.04.44-.14.51.01.08.15.37.54.37.54,0,0,.13.19.3.19s.36.05.45.01c.09-.04.31-.19.44-.33.13-.15.26-.2.31-.37.05-.17.1-.51.2-.6.1-.09,1.45-1.84,1.45-1.84l2.16-1.07s.58-.07.94-.1c.36-.03,2.54-.28,3.16-.35.62-.07,2.77-.54,2.91-.56.13-.03,7.24-2.53,7.24-2.53,0,0,.21-.26.29-.59.09-.33,1.47-4.65,1.47-4.65l-1.05-1.78-6.58-.71-2.25-3.14-.04-.46s-.46-.03-.66-.07c-.2-.04-.1-.26-.04-.36.05-.1-.09-.15-.34-.11-.25.05-.42.12-.58-.19-.16-.31-.3-.54-.3-.54,0,0-.25-.41-.43-.66-.18-.25-.26-.38-.26-.58s.05-.56-.26-.66c-.31-.1-.51-.28-.56-.47-.05-.19-.46-.94-.41-1.18.05-.24.13-.54.13-.54,0,0,.26-.36.11-.47-.15-.12-.31-.25-.28-.36.04-.11.19-.42-.06-.58-.25-.15-.56-.36-.69-.47-.13-.11-.33-.54-.49-.45-.16.09-.27,0-.36-.13-.1-.13-.31-.28-.3-.49.02-.21.04-.38-.17-.45-.21-.07-.16-.12-.34-.19-.18-.07-.26-.15-.39-.11-.12.04-.25-.36-.08-.39.17-.03.17-.12-.04-.38-.21-.26-.3-.45-.38-.64-.09-.19-.47-1.07-.47-1.07h-1.88l-.58-1.28-6.6-.56-6.51-5.44s-1.57-.7-1.82-.86c-.25-.15-2.06-1.35-2.18-1.43-.12-.08-2.98-.73-2.98-.73"/>
  <path class="st1" d="M62.85,62.59s-.17-2.43-2.64-2.43c-.45,0-.99.08-1.6.25-2.11.57-4.44,1.91-4.53,1.96l-.36.21-.36-.21c-.16-.09-3.86-2.21-6.14-2.21-2.46,0-2.63,2.4-2.64,2.43l-.02.29h18.31l-.02-.29ZM48.38,60.96c.98.26,3.6,1.14,4.47,1.54-1.37-.34-4.72-1.4-6.02-1.4-1.11,0-1.72.5-2.12.8.28-.58.83-1.2,2.04-1.2.45,0,1,.09,1.62.26M59.04,60.96c.63-.17,1.18-.26,1.62-.26,1.21,0,1.76.62,2.04,1.2-.39-.3-1-.8-2.12-.8-1.3,0-4.65,1.06-6.02,1.4.87-.4,3.49-1.28,4.47-1.54M57.09,39.39c.14,0,4.76,1.12,7.44,2.82-2.61-.56-3.42-.42-6.07-.61,2.35,1.87,4.34,4.22,5.81,7.01-2.13-1.88-4.43-3.59-6.81-5.11,1.29,2.96,1.91,6.22,1.71,9.64-1.06-3.22-2.47-6.37-4.09-9.29-.04,6.65-1.05,15.19-1.04,17.72,0-2.25-1.25-11.01-1.29-17.73-1.79,3.22-3.18,6.42-4.09,9.31-.12-3.4.5-6.69,1.77-9.69-2.61,1.67-4.95,3.43-6.87,5.16,1.52-2.75,3.53-5.12,5.9-7.02-2.91.2-4.04.11-6.45.65,2.71-1.62,7.22-2.69,7.39-2.8-1.71-2.51-5.01-5.7-5.01-5.7,0,0,3.3,1.39,7.36,3.98-.09-1.01,1.18-8.59,1.18-8.59,0,0,1.08,7.11,1.08,8.6,3.92-3.05,6.03-3.87,6.44-3.98,0,0-3.45,3.89-4.34,5.65M51.73,75.44h-1.21l-1.24-1.85s-.06-.11-.11-.23h-.02v2.09h-.96v-4.03c0-.16.21-.23.21-.23h.75v2.02h.02c.02-.06.06-.13.12-.24l1.18-1.78h1.14l-1.48,2.03,1.61,2.23ZM54.6,71.95h-1.5v1.05h1.38v.78h-1.38v1.66h-.96s0-4.06,0-4.11c.01-.12.13-.16.13-.16h2.33v.78ZM58.79,73.59c0,1.28-.6,1.92-1.79,1.92s-1.74-.63-1.74-1.88v-2.46h.96v2.48c0,.69.27,1.03.81,1.03s.79-.33.79-1v-2.51h.96v2.42ZM58.46,59.5c.54-.22,1.02-.35,1.43-.4,1.08-.13,1.67.38,1.98.87-.38-.23-1.01-.63-2-.51-1.17.14-2.69.88-3.88,1.33.74-.45,1.63-.95,2.48-1.29M48.95,59.5c.85.34,1.74.84,2.48,1.29-1.19-.45-2.71-1.19-3.88-1.33-1-.12-1.62.28-2,.51.31-.49.9-1,1.98-.87.4.05.88.18,1.43.4"/>
  <path class="st2" d="M238.75,90.68c-.21-.21-.46-.38-.74-.49-.28-.11-.58-.17-.89-.17h-1.41c-.05.38-.09.78-.13,1.19-.03.41-.05.83-.05,1.26,0,.29,0,.6.03.91h-3.03c-.11-.09-.22-.19-.34-.31-.11-.12-.21-.25-.3-.4-.08-.15-.16-.3-.21-.47-.06-.17-.08-.34-.08-.51,0-.23.04-.43.12-.6.08-.17.19-.3.32-.41.13-.1.29-.18.46-.23.18-.05.36-.07.55-.07.09,0,.22.02.39.05.17.03.31.08.43.14v-.74c-.15-.07-.34-.13-.56-.17-.22-.04-.41-.06-.59-.06-.27,0-.54.04-.8.12-.26.08-.49.2-.7.36-.2.16-.37.36-.49.59-.13.24-.19.52-.19.84,0,.36.09.7.27,1,.18.3.41.59.68.86h-1.44s0,0,0,0h-.93c.01-.16.02-.31.03-.46,0-.15,0-.3,0-.45,0-.43-.02-.85-.05-1.26-.03-.41-.08-.8-.13-1.19h-1.41c-.31,0-.6.06-.88.17-.28.11-.53.28-.74.49-.21.21-.38.47-.51.77-.13.3-.19.63-.19,1,0,.28.03.56.1.85.06.29.16.56.27.82h4.26s0,0,0,0h9.2c.11-.26.2-.53.27-.82.07-.29.1-.57.1-.85,0-.37-.06-.7-.19-1-.13-.3-.3-.55-.51-.77ZM228.13,92.8c-.02.19-.04.38-.07.58h-1.55c-.09-.18-.15-.36-.18-.55-.04-.19-.06-.38-.06-.57,0-.29.04-.53.13-.72.09-.19.19-.34.31-.46.12-.12.26-.2.4-.25.14-.05.27-.07.39-.07h.53c.03.24.06.48.08.73.02.25.04.5.04.76,0,.18,0,.37-.02.56ZM238.37,92.83c-.04.19-.1.37-.19.55h-1.55c-.06-.39-.08-.77-.08-1.14,0-.26.01-.51.04-.76.02-.25.05-.49.08-.73h.53c.12,0,.25.02.39.07.14.05.28.13.4.25.13.12.23.27.32.46.09.19.13.43.13.72,0,.19-.02.38-.06.57ZM105.89,92.94c-.2,0-.36.06-.48.18-.12.12-.18.28-.18.49s.06.35.18.47c.12.11.27.17.47.17s.36-.06.48-.17c.12-.12.18-.28.18-.49,0-.2-.06-.35-.18-.47-.12-.11-.28-.17-.47-.17ZM108.66,92.94c-.2,0-.36.06-.48.18-.12.12-.18.28-.18.49s.06.35.18.47c.12.11.27.17.47.17s.36-.06.48-.17c.12-.12.18-.28.18-.49,0-.2-.06-.35-.18-.47-.12-.11-.28-.17-.48-.17ZM113.09,88.96c.15,0,.28-.05.38-.16.1-.1.15-.23.15-.39,0-.14-.05-.27-.15-.37-.1-.1-.23-.16-.38-.16s-.27.05-.38.16c-.11.1-.16.23-.16.37,0,.15.05.28.16.39.1.1.23.16.38.16ZM111.58,88.96c.15,0,.28-.05.38-.16.11-.1.16-.23.16-.39,0-.14-.05-.27-.16-.37-.11-.1-.24-.16-.38-.16s-.27.05-.38.16c-.1.1-.16.23-.16.37,0,.15.05.28.16.39.1.1.23.16.38.16ZM118.86,90.68c-.21-.21-.46-.38-.74-.49-.28-.11-.58-.17-.89-.17h-1.41c-.05.38-.09.78-.12,1.19-.03.41-.05.83-.05,1.26,0,.29,0,.6.03.91h-.78s0,0,0,0h-.93c.01-.16.02-.31.03-.46,0-.15,0-.3,0-.45,0-.43-.02-.85-.05-1.26-.03-.41-.08-.8-.13-1.19h-1.41c-.31,0-.6.06-.88.17-.28.11-.53.28-.74.49-.21.21-.38.47-.51.77-.13.3-.19.63-.19,1,0,.28.03.56.1.85.06.29.15.56.27.82h4.26s0,0,0,0h4.47c.11-.26.2-.53.27-.82.07-.29.1-.57.1-.85,0-.37-.06-.7-.19-1-.12-.3-.3-.55-.51-.77ZM112.96,92.8c-.02.19-.04.38-.07.58h-1.55c-.09-.18-.15-.36-.18-.55-.04-.19-.05-.38-.05-.57,0-.29.04-.53.13-.72.09-.19.19-.34.31-.46.12-.12.26-.2.4-.25.14-.05.28-.07.39-.07h.53c.03.24.06.48.08.73.02.25.04.5.04.76,0,.18,0,.37-.02.56ZM118.48,92.83c-.04.19-.1.37-.19.55h-1.55c-.06-.39-.08-.77-.08-1.14,0-.26.01-.51.04-.76.02-.25.05-.49.08-.73h.53c.12,0,.25.02.39.07.14.05.28.13.4.25.13.12.23.27.32.46.09.19.13.43.13.72,0,.19-.02.38-.06.57ZM120.87,94.12h1.03v-7.27h-1.03v7.27ZM130.74,88.96c.15,0,.28-.05.38-.16.1-.1.15-.23.15-.39,0-.14-.05-.26-.15-.37-.1-.1-.23-.16-.38-.16s-.27.05-.38.16c-.11.1-.16.23-.16.37,0,.15.05.28.16.39.11.1.23.16.38.16ZM129.23,88.96c.15,0,.28-.05.38-.16.11-.1.16-.23.16-.39,0-.14-.05-.26-.16-.37-.11-.1-.24-.16-.38-.16s-.27.05-.38.16c-.11.1-.16.23-.16.37,0,.15.05.28.16.39.1.1.23.16.38.16ZM148.03,93.38h-.8c-.17,0-.31-.03-.42-.09-.12-.06-.21-.14-.28-.25-.07-.11-.12-.23-.15-.38-.03-.15-.05-.3-.05-.48v-1.58h-1.03v2.15c0,.23-.03.39-.09.48-.06.09-.18.13-.35.13h-.46c-.17,0-.31-.03-.42-.09-.12-.06-.21-.14-.28-.25-.07-.11-.12-.23-.15-.38-.03-.15-.05-.3-.05-.48v-1.01h-1.02v1.58c0,.23-.03.39-.09.48-.06.09-.18.13-.36.13h-10.43s-.1,0-.14,0c-.05,0-.09,0-.13-.01-.25-.05-.43-.18-.52-.39-.09-.21-.14-.47-.14-.78v-2.17h-1.03v2.72c0,.25-.03.41-.09.5-.06.09-.18.13-.37.13h-.95s0,0,0,0h-.46c-.2,0-.37-.03-.49-.1-.12-.06-.21-.16-.28-.29-.06-.13-.1-.28-.12-.48-.02-.19-.03-.41-.03-.66,0-.32-.03-.62-.1-.89-.07-.27-.18-.51-.34-.71-.16-.2-.37-.36-.64-.47-.26-.11-.59-.17-.98-.17h-1.18v.68h.96c.25,0,.46.04.62.13.16.09.29.21.38.36.09.15.15.34.19.55.03.22.05.45.05.71v.72c0,.22-.03.37-.08.47-.05.1-.18.14-.37.14h-2.28v.74h2.41c.15,0,.3-.01.44-.04.15-.02.28-.08.41-.16.12-.08.23-.19.32-.33.09-.14.15-.33.17-.56.02.1.05.21.1.34.05.13.12.24.21.36.09.11.2.2.34.28.1.06.22.08.35.1.03.01.07.02.11.02h1.39c.23,0,.43-.03.59-.08.16-.05.29-.13.39-.22.1-.1.18-.21.24-.35.06-.14.09-.28.11-.44.05.28.15.51.31.71.16.19.37.31.63.36.04.01.09.02.14.02h10.44c.23,0,.42-.03.58-.08.16-.05.29-.13.39-.22.1-.1.18-.21.24-.34.06-.13.09-.28.11-.45.06.31.19.57.38.78.19.21.45.31.78.31h.35c.45,0,.78-.1.97-.3.19-.2.31-.46.35-.79.06.31.19.57.38.78.19.21.45.31.78.31h1.6v-4.1h-1.04v3.36ZM150.51,94.12h1.03v-7.27h-1.03v7.27ZM154.07,90.19c-.28.11-.53.28-.74.49-.21.21-.38.47-.51.77-.13.3-.19.63-.19,1,0,.28.04.56.11.85.07.29.17.56.28.82h2.51c0,.33-.04.59-.11.78-.07.19-.16.34-.29.45-.12.11-.27.18-.44.21-.17.03-.37.05-.59.05-.09,0-.2,0-.32-.01-.12,0-.23-.03-.33-.06-.02.09-.04.17-.06.24.17.11.38.19.62.25.24.06.48.09.72.09.18,0,.38-.03.59-.09.21-.06.4-.16.57-.3.18-.14.32-.34.44-.59.12-.25.19-.57.2-.96,0-.11.01-.22.01-.34,0-.12,0-.24,0-.36v-3.45h-1.6c-.31,0-.6.06-.89.17ZM155.51,93.38h-1.62c-.09-.18-.15-.36-.19-.55-.04-.19-.06-.38-.06-.57,0-.29.04-.53.13-.72.09-.19.19-.35.31-.46.12-.12.26-.2.4-.25.14-.05.28-.07.39-.07h.63v2.62ZM159.3,92.94c-.2,0-.36.06-.48.18-.12.12-.17.28-.17.49s.06.35.17.47c.12.11.27.17.47.17s.37-.06.48-.17c.12-.12.18-.28.18-.49,0-.2-.06-.35-.18-.47-.12-.11-.28-.17-.48-.17ZM162.06,92.94c-.2,0-.36.06-.48.18-.12.12-.18.28-.18.49s.06.35.18.47c.12.11.27.17.47.17s.36-.06.48-.17c.12-.12.18-.28.18-.49,0-.2-.06-.35-.18-.47-.12-.11-.28-.17-.48-.17ZM166.65,92.45c0-.2.03-.37.09-.49.06-.13.14-.22.24-.29.1-.07.22-.12.35-.14.14-.02.28-.03.43-.03h.49v-.84h-.71c-.22,0-.44.02-.65.07-.21.05-.39.14-.56.27-.17.13-.3.32-.4.55-.1.23-.15.53-.15.9v.84h-1.02v.84h3.59v-.84h-1.7v-.83ZM183.68,93.38h-2.21c.04-.15.07-.31.09-.47.02-.16.03-.31.03-.47,0-.38-.06-.72-.19-1.02-.13-.3-.3-.55-.53-.76-.22-.21-.48-.37-.77-.48-.29-.11-.59-.17-.91-.17h-1.34c-.05.38-.09.78-.12,1.19-.03.41-.05.83-.05,1.26,0,.15,0,.3.01.45,0,.15.01.3.02.46h-7.17v-6.54h-1.03v7.27h15.22v-4.1h-1.04v3.36ZM180.51,92.83c-.04.19-.1.37-.19.55h-1.55c-.05-.39-.08-.77-.08-1.14,0-.26.01-.51.03-.76.02-.25.05-.49.09-.73h.53c.12,0,.25.02.39.07.14.05.27.13.4.25.13.12.23.27.32.46.09.19.13.43.13.72,0,.19-.02.38-.06.57ZM184.22,87.89c-.15,0-.28.05-.38.16-.1.1-.15.23-.15.38s.05.27.15.38c.1.1.23.16.38.16s.27-.05.37-.16c.1-.1.15-.23.15-.38s-.05-.27-.15-.38c-.1-.1-.23-.16-.37-.16ZM187.46,92.94c-.2,0-.36.06-.48.18-.12.12-.18.28-.18.49s.06.35.18.47c.12.11.27.17.47.17s.37-.06.49-.17c.12-.12.18-.28.18-.49,0-.2-.06-.35-.18-.47-.12-.11-.28-.17-.48-.17ZM190.23,92.94c-.2,0-.36.06-.48.18-.12.12-.18.28-.18.49s.06.35.18.47c.12.11.27.17.47.17s.37-.06.48-.17c.12-.12.18-.28.18-.49,0-.2-.06-.35-.18-.47-.12-.11-.28-.17-.48-.17ZM195.69,89.12c.15,0,.27-.05.37-.15.1-.11.15-.23.15-.38s-.05-.27-.15-.38c-.1-.1-.23-.16-.37-.16s-.28.05-.38.16c-.1.11-.15.23-.15.38s.05.27.15.38c.1.1.23.15.38.15ZM212.1,90.33c-.18-.23-.41-.4-.67-.53-.26-.13-.56-.19-.89-.19-.26,0-.53.05-.8.15-.27.1-.53.25-.77.46-.24.2-.46.46-.66.77-.2.31-.36.68-.48,1.09v-5.24h-1.03v6.54h-7.29s0,0,0,0h-.24c-.19,0-.34-.04-.46-.11-.12-.07-.21-.16-.27-.28-.06-.12-.11-.25-.13-.4-.02-.15-.04-.3-.04-.46v-.94h-1.03v1.91c0,.3-.03.58-.1.83-.06.25-.17.47-.32.66-.15.18-.34.33-.57.43-.23.11-.52.16-.86.16-.28,0-.54-.04-.78-.12-.25-.08-.46-.2-.64-.35-.18-.15-.32-.34-.43-.56-.1-.22-.16-.47-.16-.76,0-.18.02-.41.07-.67.05-.26.15-.53.3-.82l-.27-.08c-.2.2-.37.48-.51.84-.14.35-.21.74-.21,1.15,0,.29.05.58.14.86.09.28.24.53.45.76.21.22.48.4.81.54s.73.21,1.21.21c.31,0,.61-.04.9-.13.28-.09.55-.21.78-.37.24-.16.45-.36.63-.6.18-.23.32-.5.42-.79.05-.14.08-.29.11-.48.02-.18.04-.43.05-.76h0c.05.31.17.57.37.77.19.2.45.3.77.31,0,0,0,0,0,0h0s0,0,0,0h.17s0,0,0,0h12.98v-1.94c0-.37-.05-.72-.15-1.03-.1-.31-.24-.58-.43-.81ZM211.61,93.38h-3.89c.11-.47.25-.88.42-1.23.18-.35.37-.65.6-.89.22-.24.46-.42.7-.54.25-.12.49-.18.73-.18.42,0,.77.14,1.04.42.27.28.4.72.4,1.34v1.09ZM215.14,90.19c-.28.11-.53.28-.74.49-.21.21-.38.47-.51.77-.13.3-.19.63-.19,1,0,.28.04.56.11.85.07.29.17.56.29.82h2.51c0,.33-.04.59-.11.78-.07.19-.16.34-.29.45-.12.11-.27.18-.44.21-.17.03-.37.05-.59.05-.09,0-.2,0-.32-.01-.12,0-.23-.03-.33-.06-.02.09-.04.17-.06.24.17.11.38.19.62.25.24.06.48.09.72.09.18,0,.38-.03.59-.09.21-.06.4-.16.57-.3.18-.14.32-.34.44-.59.12-.25.19-.57.2-.96,0-.11.01-.22.01-.34,0-.12,0-.24,0-.36v-3.45h-1.6c-.31,0-.6.06-.89.17ZM216.59,93.38h-1.63c-.09-.18-.15-.36-.18-.55-.04-.19-.06-.38-.06-.57,0-.29.04-.53.13-.72.09-.19.19-.35.31-.46.12-.12.26-.2.4-.25.14-.05.27-.07.39-.07h.63v2.62ZM220.11,90.19c-.28.11-.53.28-.74.49-.21.21-.38.47-.51.77-.13.3-.19.63-.19,1,0,.28.04.56.11.85.08.29.17.56.29.82h2.51c0,.33-.04.59-.11.78-.07.19-.16.34-.29.45-.12.11-.27.18-.44.21-.17.03-.37.05-.59.05-.09,0-.2,0-.32-.01-.12,0-.23-.03-.33-.06-.02.09-.04.17-.07.24.17.11.38.19.62.25.24.06.48.09.72.09.18,0,.38-.03.59-.09.21-.06.4-.16.57-.3.18-.14.32-.34.44-.59.12-.25.18-.57.2-.96,0-.11.01-.22.01-.34,0-.12,0-.24,0-.36v-3.45h-1.6c-.31,0-.6.06-.89.17ZM221.56,93.38h-1.62c-.09-.18-.15-.36-.19-.55-.04-.19-.06-.38-.06-.57,0-.29.04-.53.13-.72.09-.19.19-.35.31-.46.12-.12.26-.2.4-.25.14-.05.27-.07.39-.07h.63v2.62ZM226.74,88.96c.15,0,.27-.05.38-.16.11-.1.16-.23.16-.39,0-.14-.05-.27-.16-.37-.11-.1-.24-.16-.38-.16s-.27.05-.38.16c-.11.1-.16.23-.16.37,0,.15.05.28.16.39.1.1.23.16.38.16ZM228.25,88.96c.15,0,.28-.05.38-.16.1-.1.15-.23.15-.39,0-.14-.05-.27-.15-.37-.1-.1-.23-.16-.38-.16s-.27.05-.38.16c-.11.1-.16.23-.16.37,0,.15.05.28.16.39.1.1.23.16.38.16ZM251.05,94.8c-.15,0-.28.05-.38.15-.1.1-.15.23-.15.38s.05.27.15.37c.1.1.23.15.38.15.15,0,.27-.05.38-.15.1-.1.16-.23.16-.37s-.05-.28-.16-.38c-.11-.1-.23-.15-.38-.15ZM253.5,93.34c-.05-.28-.1-.57-.13-.87-.03-.23-.07-.47-.11-.7-.04-.23-.09-.45-.17-.67-.07-.21-.16-.41-.27-.59-.11-.18-.25-.34-.43-.47-.17-.14-.38-.24-.62-.32-.24-.08-.53-.12-.87-.12-.13,0-.26,0-.4.03-.14.02-.27.04-.39.07-.13.03-.24.06-.36.1-.11.04-.21.07-.3.11.03.09.05.17.07.26.02.09.05.17.08.26.39-.14.74-.21,1.05-.21.33,0,.58.06.78.18.19.12.34.27.45.46.11.19.19.41.25.65.05.24.1.49.14.74.03.2.07.39.12.59.05.19.11.37.19.53h-10.79v-6.54h-1.03v7.27h12.97c-.1-.24-.18-.5-.23-.78Z"/>
  <path class="st4" d="M111.31,40.21h.08c.27.64.47,1.06.6,1.25l6.6,9.83h6.44l-8.57-11.84,7.89-10.8h-6.07l-6.25,9.44c-.29.55-.5.97-.63,1.26h-.08v-10.7h-3.97s-1.12.39-1.13,1.24v21.39h5.1v-11.08ZM132.29,51.28v-8.79h7.34v-4.13h-7.34v-5.55h7.98v-4.15h-12.39s-.62.21-.7.83c-.03.28,0,21.8,0,21.8h5.1ZM152.95,51.68c6.33,0,9.5-3.4,9.5-10.2v-12.83h-5.1v13.32c0,3.54-1.41,5.3-4.21,5.3s-4.29-1.83-4.29-5.49v-13.13h-5.11v13.07c0,6.64,3.07,9.96,9.22,9.96ZM141.18,74.28c.21-.21.32-.47.32-.78s-.11-.56-.32-.76c-.21-.21-.47-.31-.77-.31s-.56.1-.78.31c-.22.21-.33.46-.33.76s.11.57.33.78c.22.21.48.31.78.31s.56-.1.77-.31ZM137.34,72.43c-.3,0-.56.1-.77.31-.21.21-.32.46-.32.76s.11.57.32.78c.21.21.47.31.77.31s.56-.1.77-.31c.21-.21.32-.47.32-.78s-.11-.56-.32-.76c-.21-.21-.47-.31-.77-.31ZM152.02,62.68h-2.71c-.65,0-1.27.11-1.87.34-.59.23-1.11.55-1.56.97-.45.42-.81.94-1.08,1.55-.26.61-.39,1.31-.39,2.09,0,.64.08,1.27.23,1.9h-2.18s0,0,0,0h-.51c-.1,0-.2,0-.29,0-.1,0-.19-.02-.27-.03-.51-.1-.87-.37-1.06-.8-.19-.43-.29-.96-.29-1.59v-4.42h-2.11v5.55c0,.5-.06.84-.18,1.03-.12.18-.37.27-.76.27h-2.52s0,0,0,0h-1.83v-2.45c0-.77-.1-1.47-.3-2.11-.2-.64-.49-1.19-.87-1.66-.38-.46-.83-.82-1.37-1.08-.54-.26-1.14-.39-1.81-.39-.54,0-1.09.1-1.64.3-.55.2-1.07.51-1.56.92-.49.41-.94.94-1.35,1.57-.41.63-.74,1.38-.99,2.25v-3.03h-2.05v5.67h-1.5s0,0,0,0h-1.05c-.35,0-.65-.07-.89-.22-.24-.14-.43-.33-.57-.56-.15-.23-.24-.48-.3-.77-.06-.29-.09-.58-.09-.88v-10.9h-2.11v12.76c0,.62-.07,1.18-.2,1.69-.13.52-.35.96-.65,1.34-.3.38-.69.67-1.17.89-.48.21-1.06.32-1.75.32-.56,0-1.1-.08-1.6-.24-.5-.16-.93-.4-1.3-.72-.36-.31-.65-.7-.87-1.15-.21-.45-.32-.97-.32-1.54,0-.38.05-.83.14-1.37.1-.53.3-1.09.61-1.66l-.55-.17c-.4.42-.75.98-1.03,1.7-.29.72-.43,1.5-.43,2.34,0,.59.09,1.17.28,1.75.19.58.49,1.09.92,1.54.43.45.98.82,1.65,1.1.67.28,1.49.42,2.46.42.68,0,1.32-.1,1.94-.31.61-.21,1.17-.5,1.68-.88.5-.38.93-.83,1.3-1.38.36-.54.63-1.14.79-1.81.06-.24.11-.52.13-.84.03-.32.05-.71.08-1.18v-.02c.1.64.35,1.17.74,1.59.39.42.93.63,1.59.63h.2s0,0,.01,0h15.62s0,0,0,0h2.84c.48,0,.88-.05,1.2-.16.32-.11.58-.26.79-.45.21-.19.37-.43.48-.7.11-.28.19-.58.23-.9.1.56.31,1.05.64,1.44.33.39.75.64,1.28.74.09.02.18.04.29.04h.65s0,0,0,0h9.33c.08-.6.13-1.18.16-1.74.03-.56.05-1.1.05-1.63,0-.88-.04-1.74-.11-2.57-.08-.84-.16-1.64-.26-2.42ZM130.48,69.53h-7.91c.21-.95.5-1.79.86-2.51.36-.72.76-1.32,1.2-1.81.44-.48.92-.85,1.41-1.09.5-.24.99-.37,1.48-.37.44,0,.84.07,1.2.21.36.14.67.35.93.64.26.29.47.66.61,1.1.14.44.22.98.22,1.61v2.22ZM150.27,68.35c-.03.38-.07.77-.13,1.18h-3.16c-.18-.36-.3-.74-.38-1.12-.08-.38-.11-.77-.11-1.16,0-.59.09-1.08.26-1.47.18-.39.39-.7.64-.94.25-.24.52-.41.81-.51.29-.1.55-.15.79-.15h1.07c.07.49.13.99.18,1.49.05.5.07,1.02.07,1.54,0,.38-.01.76-.04,1.14ZM148.19,58.65c-.21.21-.31.47-.31.77s.1.56.31.77c.21.21.47.32.78.32s.56-.11.76-.32c.21-.21.31-.47.31-.77s-.1-.56-.31-.77c-.21-.21-.46-.32-.76-.32s-.57.11-.78.32ZM165.92,60.2c.07-.16.17-.28.29-.36.13-.08.27-.13.43-.16.16-.03.34-.04.53-.04h.6v-1.04h-.88c-.64,0-1.16.18-1.54.53-.39.35-.58.91-.58,1.68v1h-1.26v1.03h4.39v-1.03h-2.07v-1c0-.25.03-.46.1-.61ZM194.03,71.03s0,0,0,0h4.33v-14.83h-2.13v13.33h-2.2s0,0,0,0h-2.03c.08-.31.14-.63.18-.95.04-.32.07-.64.07-.95,0-.78-.13-1.47-.4-2.08-.26-.61-.62-1.13-1.07-1.55-.45-.43-.97-.75-1.56-.98-.59-.23-1.21-.34-1.86-.34h-2.73c-.1.78-.18,1.58-.25,2.42-.07.83-.1,1.69-.1,2.57,0,.31,0,.62.02.92.01.3.02.62.04.94h-1.88s0,0,0,0h-.52c-.35,0-.65-.07-.88-.2-.24-.13-.43-.31-.58-.54-.14-.23-.24-.49-.3-.78-.06-.3-.08-.6-.08-.91v-10.9h-2.11v12.03c0,.5-.06.84-.18,1.02-.12.18-.38.27-.76.27h-1.2s0,0,0,0h-.85c-.35,0-.65-.06-.89-.18-.24-.12-.43-.29-.57-.51-.14-.22-.25-.48-.31-.77-.06-.29-.09-.62-.09-.97v-10.9h-2.09v12.03c0,.5-.06.84-.18,1.03-.12.18-.37.27-.76.27h-7.42c-.8,0-1.44-.1-1.92-.29-.48-.19-.84-.44-1.1-.73-.26-.29-.43-.6-.51-.93-.08-.33-.12-.62-.12-.89,0-.46.06-.89.19-1.27.12-.38.29-.74.51-1.06l-.58-.17c-.36.4-.68.9-.96,1.5-.28.6-.41,1.21-.41,1.83,0,.41.06.83.18,1.25.12.42.35.8.68,1.14.33.34.8.61,1.39.82.6.21,1.38.31,2.34.31h7.85c.49,0,.9-.04,1.24-.13.53-.14.92-.39,1.17-.75.25-.37.41-.81.47-1.34.13.64.39,1.17.79,1.59.39.41.92.62,1.57.63,0,0,0,0,.02,0h.01s0,0,0,0h.36s0,0,0,0h1.52c.48,0,.88-.05,1.2-.16.32-.11.58-.26.79-.45.21-.19.37-.43.48-.7.11-.28.19-.58.23-.91.13.64.39,1.17.79,1.59.4.42.93.63,1.6.63h.02s0,0,0,0h11.6ZM186.4,65.67c.04-.5.1-1,.18-1.49h1.08c.24,0,.5.05.79.15.29.1.56.27.82.51.26.24.47.55.65.94.18.39.26.88.26,1.47,0,.39-.04.77-.12,1.16-.08.38-.21.76-.38,1.12h-3.16c-.11-.79-.17-1.56-.17-2.32,0-.53.02-1.04.07-1.54ZM201.39,71.03h2.11v-14.83h-2.11v14.83ZM214.34,58.65c-.21.21-.32.46-.32.75,0,.31.11.58.32.79.21.21.47.32.77.32s.57-.11.78-.32c.21-.21.31-.48.31-.79,0-.29-.1-.54-.31-.75-.21-.21-.47-.32-.78-.32s-.56.11-.77.32ZM211.28,58.65c-.21.21-.32.46-.32.75,0,.31.11.58.32.79.21.21.47.32.77.32s.56-.11.78-.32c.22-.21.33-.48.33-.79,0-.29-.11-.54-.33-.75-.22-.21-.48-.32-.78-.32s-.56.11-.77.32ZM236.53,64.02c-.43-.43-.93-.77-1.51-1-.57-.23-1.18-.35-1.82-.35h-2.88c-.1.78-.19,1.58-.25,2.42-.07.83-.1,1.69-.1,2.57,0,.6.02,1.22.06,1.86h-1.94s0,0,0,0h-4.23c-.23-.18-.45-.39-.69-.63-.23-.24-.44-.51-.61-.81-.17-.3-.32-.61-.43-.96-.11-.34-.17-.69-.17-1.05,0-.48.08-.88.25-1.22.16-.34.38-.62.65-.83.27-.21.58-.36.94-.46.36-.09.73-.14,1.12-.14.19,0,.45.03.79.1.34.07.63.17.89.29v-1.5c-.31-.15-.69-.27-1.14-.35-.45-.08-.85-.12-1.2-.12-.55,0-1.09.08-1.63.24-.53.16-1.01.4-1.42.72-.41.33-.75.73-1.01,1.21-.26.48-.39,1.06-.39,1.72,0,.74.18,1.42.55,2.03.36.62.83,1.2,1.39,1.75h-3.29s0,0,0,0h-1.54c.03-.33.04-.64.06-.94,0-.3.02-.61.02-.92,0-.88-.04-1.74-.1-2.57-.07-.84-.16-1.64-.27-2.42h-2.88c-.63,0-1.23.12-1.8.35-.57.23-1.07.56-1.51,1-.44.43-.78.95-1.04,1.56-.26.61-.39,1.29-.39,2.04,0,.56.06,1.14.2,1.73.13.59.32,1.15.56,1.67h9.05s0,0,0,0h9.28s0,0,0,0h9.11c.23-.53.41-1.08.55-1.68.14-.59.21-1.17.21-1.73,0-.75-.13-1.43-.39-2.04-.26-.61-.6-1.13-1.04-1.56ZM214.86,68.35c-.03.38-.08.78-.14,1.18h-3.16c-.18-.36-.3-.74-.38-1.12-.08-.38-.11-.77-.11-1.16,0-.59.09-1.08.26-1.47.18-.39.39-.7.64-.94.25-.24.52-.41.82-.51.29-.1.56-.15.8-.15h1.07c.06.49.12.99.17,1.49.05.5.08,1.02.08,1.54,0,.38-.02.76-.05,1.14ZM235.76,68.41c-.08.38-.21.76-.39,1.12h-3.16c-.11-.79-.17-1.56-.17-2.32,0-.53.02-1.04.07-1.54.05-.5.11-1,.17-1.49h1.07c.24,0,.5.05.79.15.29.1.56.27.82.51.26.24.47.55.65.94.17.39.26.88.26,1.47,0,.39-.04.77-.12,1.16ZM244.39,71.03h9.94c-.21-.49-.37-1.02-.48-1.58-.11-.56-.2-1.15-.27-1.77-.06-.48-.13-.95-.22-1.42-.08-.47-.2-.92-.34-1.36-.14-.43-.33-.83-.55-1.2-.23-.37-.51-.69-.87-.97-.35-.28-.77-.49-1.27-.65-.5-.15-1.09-.23-1.78-.23-.26,0-.53.02-.81.06-.28.04-.54.09-.8.15-.26.06-.5.13-.73.21-.23.07-.43.15-.6.23.05.18.1.35.14.53.04.18.1.35.16.53.8-.29,1.52-.43,2.15-.43.66,0,1.19.12,1.58.36.39.24.7.55.92.94.23.39.39.83.5,1.33.11.5.21,1,.29,1.51.06.4.14.8.23,1.2.09.39.22.76.38,1.08h-7.94s0,0,0,0h-1.3v-13.33h-2.11v14.83h3.76s0,0,0,0ZM249.62,72.74c-.21-.21-.47-.31-.77-.31s-.57.1-.78.31c-.21.21-.31.47-.31.78s.1.56.31.76c.21.21.47.31.78.31s.56-.1.77-.31c.21-.21.32-.46.32-.76s-.11-.57-.32-.78ZM110.79,78.18h-.95l-3.5,3.86v-3.86h-.73v7.49h.73v-2.6l1.38-1.51,2.59,4.11h.83l-2.93-4.65,2.58-2.84ZM113.89,85.67h.73v-7.49h-.73v7.49ZM123.12,84.3l-3.71-6.12h-1.13v7.49h.73v-6.83l4.12,6.83h.72v-7.49h-.72v6.12ZM128.58,78.31c.34,0,.65.09.93.26.28.17.52.41.71.73.12.19.23.45.32.78l.79-.16c-.13-.46-.28-.83-.47-1.1-.26-.37-.6-.66-1.01-.87-.41-.2-.86-.31-1.33-.31-.85,0-1.58.33-2.17,1-.59.67-.89,1.64-.89,2.91s.31,2.24.93,2.95c.53.61,1.22.92,2.08.92.46,0,.86-.09,1.21-.28.35-.18.66-.46.94-.82v.95h.72v-3.61h-2.58v.72h1.87c0,.35-.03.65-.09.89-.06.24-.18.48-.35.7-.17.22-.4.41-.69.56-.29.15-.61.22-.93.22-.41,0-.8-.13-1.16-.38-.36-.25-.64-.64-.83-1.16-.2-.52-.3-1.09-.3-1.72,0-1.03.23-1.82.69-2.37.46-.54,1-.82,1.62-.82ZM139.03,85.28h.72v-3.6h2.69v-.73h-2.69v-2.45h3.64v-.72h-4.36v7.49ZM146.63,77.8l-2.43,7.49h.74l.76-2.32h3.02l.75,2.32h.73l-2.4-7.49h-1.16ZM145.93,82.24l1.29-3.94,1.27,3.94h-2.56ZM153,85.28h.73v-7.49h-.73v7.49ZM159.81,81.03c-.77-.22-1.27-.45-1.5-.68-.23-.23-.34-.49-.34-.77,0-.35.14-.64.43-.9.28-.25.66-.38,1.12-.38.44,0,.82.12,1.13.36.31.24.54.58.66,1.02l.75-.23c-.1-.35-.24-.63-.41-.85-.25-.31-.57-.55-.94-.71-.38-.16-.78-.24-1.2-.24-.7,0-1.26.2-1.69.6-.43.4-.64.87-.64,1.42,0,.5.19.92.58,1.26.39.34,1.03.64,1.93.9.67.19,1.11.38,1.33.57.29.25.43.55.43.91,0,.39-.16.73-.48,1.01-.32.28-.75.43-1.31.43-.4,0-.74-.08-1.02-.24-.28-.16-.5-.37-.68-.64-.1-.16-.19-.39-.28-.69l-.78.21c.11.4.25.72.43.95.25.34.58.61.99.8.41.19.85.29,1.34.29.78,0,1.41-.21,1.88-.64.47-.42.71-.94.71-1.54,0-.53-.17-.97-.52-1.32-.35-.35-.98-.65-1.9-.91ZM166.83,77.8l-2.43,7.49h.74l.76-2.32h3.02l.75,2.32h.73l-2.4-7.49h-1.16ZM166.13,82.24l1.28-3.94,1.27,3.94h-2.55ZM173.75,77.8h-.72v7.49h4.33v-.74h-3.61v-6.75ZM189.28,82.7c0,.37-.08.72-.22,1.03-.15.31-.37.55-.67.72-.3.16-.68.24-1.16.24-.6,0-1.08-.18-1.43-.53-.35-.36-.53-.84-.53-1.46v-4.9h-.72v5c0,.35.08.74.24,1.17.16.42.46.77.89,1.05.43.28.97.41,1.63.41.82,0,1.47-.25,1.96-.74.49-.49.73-1.16.73-2v-4.9h-.73v4.9ZM198.26,83.92l-3.71-6.12h-1.13v7.49h.73v-6.84l4.11,6.84h.72v-7.49h-.72v6.12ZM202.63,85.28h.73v-7.49h-.73v7.49ZM209.12,84.1l-2.17-6.3h-.74l2.56,7.49h.67l2.56-7.49h-.74l-2.15,6.3ZM215.42,81.67h2.74v-.72h-2.74v-2.44h3.69v-.71h-4.41v7.49h4.77v-.72h-4.04v-2.89ZM227.08,80.98c.27-.33.41-.72.41-1.15,0-.39-.12-.76-.34-1.08-.23-.33-.54-.57-.94-.72-.4-.15-.93-.23-1.58-.23h-2.29v7.49h.73v-3.4h2.06l1.77,3.4h.78l-1.82-3.55c.55-.17.97-.42,1.24-.75ZM224.65,81.24h-1.59v-2.8h1.86c.59,0,1.02.13,1.32.39.29.26.44.59.44.99,0,.29-.08.54-.23.76-.15.22-.36.37-.64.47-.38.13-.77.19-1.15.19ZM232.91,81.03c-.77-.22-1.27-.45-1.5-.68-.23-.23-.35-.49-.35-.77,0-.35.14-.64.42-.9.28-.25.66-.38,1.12-.38.44,0,.81.12,1.13.36.31.24.53.58.67,1.02l.76-.23c-.1-.35-.24-.63-.42-.85-.25-.31-.57-.55-.94-.71-.38-.16-.77-.24-1.2-.24-.7,0-1.26.2-1.69.6-.43.4-.64.87-.64,1.42,0,.5.19.92.58,1.26.38.34,1.03.64,1.93.9.67.19,1.11.38,1.33.57.29.25.43.55.43.91,0,.39-.16.73-.48,1.01-.32.28-.75.43-1.31.43-.4,0-.74-.08-1.02-.24-.28-.16-.51-.37-.68-.64-.1-.16-.19-.39-.28-.69l-.78.21c.11.4.25.72.42.95.25.34.58.61.99.8.41.19.85.29,1.34.29.78,0,1.41-.21,1.88-.64.47-.42.71-.94.71-1.54,0-.53-.17-.97-.52-1.32-.35-.35-.98-.65-1.9-.91ZM238.55,85.28h.73v-7.49h-.73v7.49ZM242.28,78.51h2.39v6.77h.73v-6.77h2.37v-.72h-5.49v.72ZM252.48,81.27l-2-3.47h-.8l2.44,4.23v3.25h.72v-3.25l2.44-4.23h-.8l-2.01,3.47Z"/>
</svg>